<?xml version="1.0" encoding="UTF-8" standalone="no"?>
<svg
   xmlns:dc="http://purl.org/dc/elements/1.1/"
   xmlns:cc="http://creativecommons.org/ns#"
   xmlns:rdf="http://www.w3.org/1999/02/22-rdf-syntax-ns#"
   xmlns:svg="http://www.w3.org/2000/svg"
   xmlns="http://www.w3.org/2000/svg"
   xmlns:sodipodi="http://sodipodi.sourceforge.net/DTD/sodipodi-0.dtd"
   xmlns:inkscape="http://www.inkscape.org/namespaces/inkscape"
   version="1.1"
   id="svg2"
   xml:space="preserve"
   width="666.66663"
   height="564.84491"
   viewBox="0 0 666.66663 564.84491"
   sodipodi:docname="cash.svg"
   inkscape:version="1.0.1 (3bc2e813f5, 2020-09-07)"
   inkscape:export-filename="/home/deve/Projects/Udacoding/week4/final_week/sayangdompet/assets/images/intro1.png"
   inkscape:export-xdpi="144.00002"
   inkscape:export-ydpi="144.00002"><metadata
     id="metadata8"><rdf:RDF><cc:Work
         rdf:about=""><dc:format>image/svg+xml</dc:format><dc:type
           rdf:resource="http://purl.org/dc/dcmitype/StillImage" /><dc:title></dc:title></cc:Work></rdf:RDF></metadata><defs
     id="defs6"><clipPath
       clipPathUnits="userSpaceOnUse"
       id="clipPath20"><path
         d="M 0,500 H 500 V 0 H 0 Z"
         id="path18" /></clipPath><clipPath
       clipPathUnits="userSpaceOnUse"
       id="clipPath32"><path
         d="M 0,144.355 H 500 V 482.549 H 0 Z"
         id="path30" /></clipPath><clipPath
       clipPathUnits="userSpaceOnUse"
       id="clipPath44"><path
         d="m 293.094,376.739 h 55.181 v -24.48 h -55.181 z"
         id="path42" /></clipPath><clipPath
       clipPathUnits="userSpaceOnUse"
       id="clipPath80"><path
         d="M 331.497,378.358 H 513.542 V 263.965 H 331.497 Z"
         id="path78" /></clipPath><clipPath
       clipPathUnits="userSpaceOnUse"
       id="clipPath112"><path
         d="M 261.734,299.902 H 324.82 V 263.15 h -63.086 z"
         id="path110" /></clipPath><clipPath
       clipPathUnits="userSpaceOnUse"
       id="clipPath136"><path
         d="m 366.187,318.218 h 8.39 v -9.175 h -8.39 z"
         id="path134" /></clipPath><clipPath
       clipPathUnits="userSpaceOnUse"
       id="clipPath156"><path
         d="M 304.407,293.513 H 324.28 V 281.318 H 304.407 Z"
         id="path154" /></clipPath><clipPath
       clipPathUnits="userSpaceOnUse"
       id="clipPath172"><path
         d="m 302.443,317.552 h 60.102 v -57.701 h -60.102 z"
         id="path170" /></clipPath><clipPath
       clipPathUnits="userSpaceOnUse"
       id="clipPath192"><path
         d="m 346.315,316.863 h 14.071 v -15.115 h -14.071 z"
         id="path190" /></clipPath><clipPath
       clipPathUnits="userSpaceOnUse"
       id="clipPath208"><path
         d="m 279.748,289.97 h 10.149 v -10.638 h -10.149 z"
         id="path206" /></clipPath><clipPath
       clipPathUnits="userSpaceOnUse"
       id="clipPath224"><path
         d="m 256.193,282.299 h 7.553 V 270.82 h -7.553 z"
         id="path222" /></clipPath><clipPath
       clipPathUnits="userSpaceOnUse"
       id="clipPath252"><path
         d="m 326.796,340.395 h 77.09 v -22.42 h -77.09 z"
         id="path250" /></clipPath><clipPath
       clipPathUnits="userSpaceOnUse"
       id="clipPath268"><path
         d="m 246.98,316.973 h 15.549 V 298.552 H 246.98 Z"
         id="path266" /></clipPath><clipPath
       clipPathUnits="userSpaceOnUse"
       id="clipPath292"><path
         d="m 211.645,345.987 h 65.92 v -48.71 h -65.92 z"
         id="path290" /></clipPath><clipPath
       clipPathUnits="userSpaceOnUse"
       id="clipPath308"><path
         d="M 0,25.829 H 455.817 V 379.92 H 0 Z"
         id="path306" /></clipPath><clipPath
       clipPathUnits="userSpaceOnUse"
       id="clipPath368"><path
         d="m 246.598,197.952 h 21.82 v -11.014 h -21.82 z"
         id="path366" /></clipPath><clipPath
       clipPathUnits="userSpaceOnUse"
       id="clipPath392"><path
         d="m 166.728,85.7478 h 16.945 V 74.3553 h -16.945 z"
         id="path390" /></clipPath><clipPath
       clipPathUnits="userSpaceOnUse"
       id="clipPath412"><path
         d="m 162.625,115.703 h 13.961 v -8.642 h -13.961 z"
         id="path410" /></clipPath><clipPath
       clipPathUnits="userSpaceOnUse"
       id="clipPath428"><path
         d="m 265.113,220.944 h 40.144 v -41.811 h -40.144 z"
         id="path426" /></clipPath><clipPath
       clipPathUnits="userSpaceOnUse"
       id="clipPath452"><path
         d="M 0,500 H 500 V 0 H 0 Z"
         id="path450" /></clipPath><clipPath
       clipPathUnits="userSpaceOnUse"
       id="clipPath1561"><circle
         style="font-variation-settings:normal;opacity:0.951845;vector-effect:none;fill:none;fill-opacity:1;fill-rule:evenodd;stroke:#ff4f00;stroke-width:2.54316;stroke-linecap:round;stroke-linejoin:round;stroke-miterlimit:4;stroke-dasharray:none;stroke-dashoffset:0;stroke-opacity:1;paint-order:markers fill stroke;stop-color:#000000;stop-opacity:1"
         id="circle1563"
         cx="271.87433"
         cy="-224.91216"
         r="284.4985"
         transform="scale(1,-1)" /></clipPath></defs><sodipodi:namedview
     pagecolor="#ffffff"
     bordercolor="#666666"
     borderopacity="1"
     objecttolerance="10"
     gridtolerance="10"
     guidetolerance="10"
     inkscape:pageopacity="0"
     inkscape:pageshadow="2"
     inkscape:window-width="1600"
     inkscape:window-height="862"
     id="namedview4"
     showgrid="false"
     inkscape:zoom="0.53658957"
     inkscape:cx="316.84357"
     inkscape:cy="499.19173"
     inkscape:window-x="0"
     inkscape:window-y="38"
     inkscape:window-maximized="0"
     inkscape:current-layer="g10" /><g
     id="g10"
     inkscape:groupmode="layer"
     inkscape:label="510977-PIA7D9-855"
     transform="matrix(1.3333333,0,0,-1.3333333,0,630.17305)"><g
       id="g1559"
       clip-path="url(#clipPath1561)"><g
         id="g14"><g
           id="g16"
           clip-path="url(#clipPath20)"><g
             id="g22"
             transform="translate(437.5889,250)"><path
               d="m 0,0 c 0,-103.603 -83.986,-187.589 -187.589,-187.589 -103.602,0 -187.588,83.986 -187.588,187.589 0,103.603 83.986,187.588 187.588,187.588 C -83.986,187.588 0,103.603 0,0"
               style="fill:#f3f3f3;fill-opacity:1;fill-rule:nonzero;stroke:none"
               id="path24" /></g></g></g><g
         id="g26"><g
           id="g28"
           clip-path="url(#clipPath32)"><g
             id="g34"
             transform="translate(262.7031,360.2075)"><path
               d="m 0,0 34.209,-7.442 2.568,-0.307 c 6.731,9.619 13.726,17.666 28.14,20.244 20.754,3.732 66.908,20.773 92.368,-39.192 0,0 -28.23,-7.616 -43.26,-12.709 0,0 1.125,-6.963 0.401,-15.374 25.156,9.653 59.006,19.554 68.577,31.261 9.585,11.72 26.255,21.553 40.291,25.121 14.048,3.555 27.545,8.707 27.545,8.707 0,0 -1.06,38.094 -25.579,70.873 0,0 -46.707,-18.737 -60.294,-29.336 C 152.114,41.82 132.146,40.772 111.401,31.785 108.798,30.657 106.035,29.904 103.22,29.554 73.611,25.873 70.15,29.613 59.086,28.044 47.472,26.398 33.971,17.666 23.87,15.014 20.624,14.153 10.825,8.606 0,0"
               style="fill:#ffd2a8;fill-opacity:1;fill-rule:nonzero;stroke:none"
               id="path36" /></g><g
             id="g38"><g
               id="g40" /><g
               id="g52"><g
                 clip-path="url(#clipPath44)"
                 opacity="0.399994"
                 id="g50"><g
                   transform="translate(348.2744,376.7388)"
                   id="g48"><path
                     d="M 0,0 C 0,0 -44.489,-1.42 -55.181,-23.143 -32.448,-29.83 -7.636,-9.738 0,0"
                     style="fill:#ffd2a8;fill-opacity:1;fill-rule:nonzero;stroke:none"
                     id="path46" /></g></g></g></g><g
             id="g54"
             transform="translate(339.1445,319.1812)"><path
               d="M 0,0 C 0.049,-0.027 0.11,-0.042 0.186,-0.046 0.193,0.128 0.214,0.314 0.21,0.502 0.152,0.33 0.083,0.171 0,0"
               style="fill:#ffd2a8;fill-opacity:1;fill-rule:nonzero;stroke:none"
               id="path56" /></g><g
             id="g58"
             transform="translate(233.4453,279.8296)"><path
               d="m 0,0 c 8.602,-9.304 21.394,-19.961 26.584,-13.464 3.039,3.414 4.63,7.894 2.991,12.385 C 29.156,0.113 28.501,1.303 27.557,2.47 27.256,2.434 26.93,2.399 26.616,2.376 18.018,1.476 9.05,0.692 0,0"
               style="fill:#ffd2a8;fill-opacity:1;fill-rule:nonzero;stroke:none"
               id="path60" /></g><g
             id="g62"
             transform="translate(339.1445,319.1812)"><path
               d="M 0,0 C 0.049,-0.027 0.11,-0.042 0.186,-0.046 0.193,0.128 0.214,0.314 0.21,0.502 0.152,0.33 0.083,0.171 0,0"
               style="fill:#ffd2a8;fill-opacity:1;fill-rule:nonzero;stroke:none"
               id="path64" /></g><g
             id="g66"
             transform="translate(331.4971,270.2627)"><path
               d="m 0,0 c 0.216,-0.185 0.456,-0.396 0.732,-0.62 2.861,-2.353 8.472,-6.179 13.998,-5.624 5.239,0.532 10.821,4.715 16.488,11.289 3.101,2.875 4.151,3.999 5.392,4.94 1.643,1.259 5.866,6.802 8.026,18.477 0.002,0.025 0.014,0.037 0.003,0.05 0.38,2.016 0.694,4.234 0.917,6.631 0.025,-10e-4 0.05,0.023 0.076,0.022 0.724,8.411 -0.401,15.374 -0.401,15.374 C 44.015,50.121 42.874,49.725 41.858,49.347 39.347,48.44 36.512,47.835 33.478,47.501 31.042,39.581 24.416,19.018 19.81,14.341 16.891,11.37 9.004,5.347 0,0"
               style="fill:#ffd2a8;fill-opacity:1;fill-rule:nonzero;stroke:none"
               id="path68" /></g><g
             id="g70"
             transform="translate(377.0527,305.4058)"><path
               d="m 0,0 c -0.223,-2.397 -0.537,-4.615 -0.917,-6.631 0.503,2.247 0.807,4.504 0.993,6.652 C 0.051,0.023 0.025,-0.001 0,0"
               style="fill:#ffd2a8;fill-opacity:1;fill-rule:nonzero;stroke:none"
               id="path72" /></g><g
             id="g74"><g
               id="g76" /><g
               id="g88"><g
                 clip-path="url(#clipPath80)"
                 opacity="0.399994"
                 id="g86"><g
                   transform="translate(331.4971,270.2627)"
                   id="g84"><path
                     d="m 0,0 c 0.216,-0.185 0.456,-0.396 0.732,-0.62 2.861,-2.353 8.472,-6.179 13.998,-5.624 5.239,0.532 10.821,4.715 16.488,11.289 3.101,2.875 4.151,3.999 5.392,4.94 1.643,1.259 5.866,6.802 8.026,18.477 0.002,0.025 0.014,0.037 0.003,0.05 0.503,2.247 0.806,4.504 0.993,6.653 25.156,9.653 59.006,19.554 68.577,31.261 9.585,11.72 26.255,21.553 40.291,25.121 14.048,3.555 27.545,8.707 27.545,8.707 0,0 -0.077,2.91 -0.711,7.842 -7.508,-3.221 -19.33,-8.014 -28.203,-10.262 C 139.096,94.266 122.426,84.433 112.841,72.714 103.27,61.006 69.419,51.105 44.263,41.453 44.076,39.303 43.772,37.047 43.27,34.8 43.281,34.787 43.269,34.775 43.268,34.75 41.106,23.075 36.884,17.532 35.242,16.272 34.001,15.332 32.951,14.208 29.85,11.333 24.182,4.758 18.601,0.576 13.361,0.044 10.079,-0.278 6.754,0.935 4.019,2.471 2.721,1.646 1.373,0.822 0,0"
                     style="fill:#ffd2a8;fill-opacity:1;fill-rule:nonzero;stroke:none"
                     id="path82" /></g></g></g></g><g
             id="g90"
             transform="translate(302.4434,260.752)"><path
               d="m 0,0 c 0.25,-0.249 0.541,-0.437 0.896,-0.59 0.648,-0.267 1.479,-0.368 2.543,-0.28 4.41,0.395 9.696,2.234 15.115,4.766 0.012,0.012 0.038,0.01 0.05,0.022 2.218,1.02 4.455,2.177 6.643,3.386 1.28,0.714 2.562,1.453 3.807,2.207 5.002,2.962 9.664,6.139 13.297,8.903 0.452,0.341 0.891,0.67 1.331,0.999 0.297,0.223 0.569,0.448 0.854,0.684 1.89,1.485 3.372,2.788 4.327,3.755 4.607,4.676 11.233,25.239 13.668,33.16 -0.79,-0.101 -1.604,-0.176 -2.43,-0.237 -0.613,-0.034 -1.239,-0.08 -1.864,-0.101 C 51.025,56.346 43.268,57.19 36.887,58.383 36.396,51.021 33.962,43.674 29.721,37.995 28.484,36.343 25.968,34.788 22.369,33.32 22.38,29.49 18.812,25.975 13.98,21.57 9.774,17.735 5.809,11.257 0.231,6.912 -0.545,6.299 -1.369,5.739 -2.229,5.217 -2.55,5.025 -2.713,4.931 -2.63,4.208 -2.598,2.322 -0.917,0.953 0,0"
               style="fill:#ffd2a8;fill-opacity:1;fill-rule:nonzero;stroke:none"
               id="path92" /></g><g
             id="g94"
             transform="translate(339.1445,319.1812)"><path
               d="M 0,0 C 0.049,-0.027 0.11,-0.042 0.186,-0.046 0.193,0.128 0.214,0.314 0.21,0.502 0.152,0.33 0.083,0.171 0,0"
               style="fill:#ffd2a8;fill-opacity:1;fill-rule:nonzero;stroke:none"
               id="path96" /></g><g
             id="g98"
             transform="translate(339.1445,319.1812)"><path
               d="M 0,0 C 0.049,-0.027 0.11,-0.042 0.186,-0.046 0.193,0.128 0.214,0.314 0.21,0.502 0.152,0.33 0.083,0.171 0,0"
               style="fill:#ffd2a8;fill-opacity:1;fill-rule:nonzero;stroke:none"
               id="path100" /></g><g
             id="g102"
             transform="translate(263.0205,278.7505)"><path
               d="m 0,0 c 5.282,-5.82 14.119,-13.812 23.854,-15.334 2.167,-0.337 4.174,-0.342 6.008,-0.078 0.012,-0.013 0.012,-0.013 0.025,-10e-4 0.727,0.091 1.433,0.233 2.114,0.401 0.014,0.012 0.038,0.011 0.051,0.023 1.869,0.488 3.563,1.245 5.141,2.208 0.861,0.521 1.685,1.082 2.461,1.695 5.577,4.345 9.543,10.823 13.749,14.658 4.832,4.405 8.4,7.92 8.389,11.749 0.01,0.748 -0.13,1.503 -0.406,2.277 -0.476,1.307 -1.362,2.67 -2.766,4.132 -6.557,6.852 -18.077,0.211 -18.077,0.211 C 35.116,19.759 23.999,8.36 22.215,6.733 22.06,6.591 21.729,6.481 21.263,6.366 21.213,6.368 21.162,6.345 21.124,6.334 20.759,6.264 20.332,6.209 19.831,6.157 19.769,6.147 19.719,6.15 19.656,6.141 12.863,5.194 5.64,4.355 -1.868,3.567 -1.906,3.556 -1.956,3.558 -2.019,3.549 -1.074,2.382 -0.419,1.192 0,0"
               style="fill:#ffd2a8;fill-opacity:1;fill-rule:nonzero;stroke:none"
               id="path104" /></g><g
             id="g106"><g
               id="g108" /><g
               id="g120"><g
                 clip-path="url(#clipPath112)"
                 opacity="0.399994"
                 id="g118"><g
                   transform="translate(324.4111,296.3418)"
                   id="g116"><path
                     d="m 0,0 c 0.274,-0.764 0.419,-1.521 0.409,-2.274 0.012,-3.825 -3.556,-7.344 -8.394,-11.746 -4.208,-3.831 -8.164,-10.313 -13.744,-14.66 -0.781,-0.613 -1.609,-1.17 -2.46,-1.689 -1.585,-0.965 -3.278,-1.719 -5.143,-2.214 -0.019,-0.012 -0.043,-0.014 -0.052,-0.02 -0.678,-0.17 -1.387,-0.31 -2.115,-0.398 -0.013,-0.021 -0.013,-0.021 -0.024,-0.003 -1.835,-0.261 -3.844,-0.265 -6.007,0.079 -9.738,1.516 -18.57,9.518 -23.86,15.331 -0.293,0.854 -0.72,1.7 -1.288,2.547 5.365,-5.691 13.734,-12.869 22.908,-14.294 2.164,-0.344 4.172,-0.341 6.007,-0.079 0.012,-0.018 0.012,-0.018 0.024,0.002 0.729,0.089 1.438,0.229 2.116,0.399 0.009,0.006 0.033,0.008 0.051,0.019 1.872,0.487 3.557,1.25 5.142,2.215 0.852,0.519 1.681,1.075 2.461,1.689 5.58,4.347 9.542,10.82 13.744,14.66 4.838,4.402 8.407,7.921 8.394,11.746 0.017,0.744 -0.128,1.501 -0.406,2.25 C -1.132,2.316 -0.416,1.131 0,0"
                     style="fill:#ffd2a8;fill-opacity:1;fill-rule:nonzero;stroke:none"
                     id="path114" /></g></g></g></g><g
             id="g122"
             transform="translate(127.6694,281.2168)"><path
               d="m 0,0 c -0.838,-2.12 0.61,-4.432 2.888,-4.522 22.897,-0.913 63.807,0.176 102.888,3.135 9.05,0.692 18.017,1.475 26.616,2.376 0.314,0.023 0.64,0.057 0.941,0.094 0.062,0.009 0.112,0.006 0.15,0.018 7.508,0.788 14.731,1.627 21.524,2.573 0.063,0.01 0.113,0.007 0.175,0.017 0.428,0.08 0.866,0.122 1.293,0.177 0.038,0.011 0.089,0.033 0.139,0.031 0.467,0.116 0.797,0.226 0.952,0.368 1.784,1.627 12.901,13.025 18.328,15.208 0,0 11.521,6.64 18.077,-0.211 1.404,-1.463 2.29,-2.826 2.766,-4.132 0.276,-0.774 0.416,-1.529 0.406,-2.277 3.599,1.468 6.115,3.023 7.352,4.675 4.241,5.679 6.675,13.027 7.166,20.388 -0.076,0.004 -0.137,0.019 -0.186,0.046 -4.639,0.851 -8.507,1.903 -10.896,2.824 -7.82,3.005 -14.412,2.075 -21.306,-5.403 -6.894,-7.478 -28.733,-24.719 -49.27,-23.459 -20.511,1.259 -22.269,13.964 -19.621,17.284 2.647,3.296 4.389,7.269 22.625,10.494 10.258,2.795 18.25,3.523 29.535,18.27 3.425,4.507 6.329,9.038 9.269,13.268 l -2.568,0.306 -34.209,7.443 -120.858,26.315 c -1.137,0.248 -2.209,-0.615 -2.195,-1.778 C 12.135,91.126 12.215,30.883 0,0"
               style="fill:#65b161;fill-opacity:1;fill-rule:nonzero;stroke:none"
               id="path124" /></g><g
             id="g126"
             transform="translate(374.1836,318.1118)"><path
               d="m 0,0 c 0,0 1.805,-8.191 -2.283,-8.938 -4.089,-0.747 -7.871,1.767 -7.421,8.139 C -5.424,0.718 0,0 0,0"
               style="fill:#fcecd2;fill-opacity:1;fill-rule:nonzero;stroke:none"
               id="path128" /></g><g
             id="g130"><g
               id="g132" /><g
               id="g144"><g
                 clip-path="url(#clipPath136)"
                 opacity="0.600006"
                 id="g142"><g
                   transform="translate(366.1865,310.8799)"
                   id="g140"><path
                     d="m 0,0 c 1.412,-1.575 3.521,-2.108 5.709,-1.71 4.089,0.746 2.285,8.95 2.285,8.95 0,0 -0.385,0.055 -1.044,0.098 C 7.275,5.203 7.766,-0.122 4.508,-0.707 2.873,-1.006 1.286,-0.783 0,0"
                     style="fill:#fcecd2;fill-opacity:1;fill-rule:nonzero;stroke:none"
                     id="path138" /></g></g></g></g><g
             id="g146"
             transform="translate(324.2773,293.2295)"><path
               d="M 0,0 C 0,0 -11.051,4.056 -13.124,3.061 -15.197,2.065 -22.312,-6.122 -19.011,-9.881 -14.725,-14.762 -6.727,-10.604 0,0"
               style="fill:#fcecd2;fill-opacity:1;fill-rule:nonzero;stroke:none"
               id="path148" /></g><g
             id="g150"><g
               id="g152" /><g
               id="g164"><g
                 clip-path="url(#clipPath156)"
                 opacity="0.600006"
                 id="g162"><g
                   transform="translate(305.2637,283.3516)"
                   id="g160"><path
                     d="m 0,0 c 4.29,-4.888 12.291,-0.717 19.017,9.875 0,0 -0.294,0.113 -0.81,0.287 C 11.77,0.954 4.452,-2.451 0.436,2.138 -0.205,2.866 -0.45,3.763 -0.417,4.747 -1.036,2.967 -1.09,1.248 0,0"
                     style="fill:#fcecd2;fill-opacity:1;fill-rule:nonzero;stroke:none"
                     id="path158" /></g></g></g></g><g
             id="g166"><g
               id="g168" /><g
               id="g180"><g
                 clip-path="url(#clipPath172)"
                 opacity="0.399994"
                 id="g178"><g
                   transform="translate(302.4434,260.752)"
                   id="g176"><path
                     d="m 0,0 c 0.25,-0.249 0.541,-0.437 0.896,-0.59 0.648,-0.267 1.479,-0.368 2.543,-0.28 4.41,0.395 9.696,2.234 15.115,4.766 0.012,0.012 0.038,0.01 0.05,0.022 8.002,3.909 16.941,9.484 23.747,14.496 0.452,0.341 0.891,0.67 1.331,0.999 0.297,0.223 0.569,0.448 0.854,0.684 12.883,10.744 15.468,35.66 15.565,36.678 L 60.102,56.8 58.237,56.674 C 58.421,14.441 0,0 0,0"
                     style="fill:#ffd2a8;fill-opacity:1;fill-rule:nonzero;stroke:none"
                     id="path174" /></g></g></g></g><g
             id="g182"
             transform="translate(360.3789,316.0078)"><path
               d="m 0,0 c 0,0 -0.171,-13.238 -7.066,-14.176 -6.895,-0.937 -8.772,5.698 -8.226,7.388 0.546,1.69 1.481,8.505 1.481,8.505 0,0 12.676,0.528 13.811,-1.717"
               style="fill:#fcecd2;fill-opacity:1;fill-rule:nonzero;stroke:none"
               id="path184" /></g><g
             id="g186"><g
               id="g188" /><g
               id="g200"><g
                 clip-path="url(#clipPath192)"
                 opacity="0.600006"
                 id="g198"><g
                   transform="translate(353.3203,301.8369)"
                   id="g196"><path
                     d="M 0,0 C 6.892,0.942 7.065,14.168 7.065,14.168 6.895,14.513 6.434,14.809 5.783,15.026 5.655,12.525 4.805,2.211 -1.259,1.38 -3.807,1.037 -5.683,1.734 -7.005,2.818 -5.741,1.014 -3.527,-0.473 0,0"
                     style="fill:#fcecd2;fill-opacity:1;fill-rule:nonzero;stroke:none"
                     id="path194" /></g></g></g></g><g
             id="g202"><g
               id="g204" /><g
               id="g216"><g
                 clip-path="url(#clipPath208)"
                 opacity="0.399994"
                 id="g214"><g
                   transform="translate(289.8965,289.9697)"
                   id="g212"><path
                     d="m 0,0 c 0,0 -7.369,-6.964 -6.604,-10.637 l -3.544,5.16 5.487,0.991 z"
                     style="fill:#ffd2a8;fill-opacity:1;fill-rule:nonzero;stroke:none"
                     id="path210" /></g></g></g></g><g
             id="g218"><g
               id="g220" /><g
               id="g232"><g
                 clip-path="url(#clipPath224)"
                 opacity="0.399994"
                 id="g230"><g
                   transform="translate(256.1924,281.811)"
                   id="g228"><path
                     d="M 0,0 C 0,0 7.118,-2.798 6.641,-10.991 9.475,-5.832 4.81,0.488 4.81,0.488 Z"
                     style="fill:#ffd2a8;fill-opacity:1;fill-rule:nonzero;stroke:none"
                     id="path226" /></g></g></g></g><g
             id="g234"
             transform="translate(139.5972,286.7407)"><path
               d="m 0,0 c 55.955,-0.326 117.36,0.93 150.975,3.869 4.147,3.9 9.648,8.747 13.002,10.089 0,0 11.521,6.641 18.077,-0.211 l 0.119,-0.13 c 5.065,5.666 9.228,13.707 9.88,20.55 -1.317,0.373 -2.472,0.75 -3.391,1.104 -7.82,3.006 -14.412,2.076 -21.306,-5.402 C 160.462,22.391 138.623,5.15 118.086,6.41 97.575,7.669 95.817,20.374 98.465,23.694 c 2.647,3.296 4.389,7.269 22.625,10.494 10.258,2.794 18.25,3.523 29.535,18.27 1.567,2.073 3.035,4.151 4.452,6.206 L 8.442,88.823 C 8.442,88.823 10.78,40.042 0,0"
               style="fill:#77c373;fill-opacity:1;fill-rule:nonzero;stroke:none"
               id="path236" /></g><g
             id="g238"
             transform="translate(257.6729,293.1431)"><path
               d="m 0,0 c 20.536,-1.26 42.376,15.981 49.27,23.458 6.894,7.479 13.486,8.409 21.305,5.403 2.39,-0.921 6.258,-1.972 10.897,-2.823 0.083,0.171 0.152,0.33 0.21,0.502 0.004,-0.187 -0.017,-0.373 -0.025,-0.548 6.381,-1.193 14.139,-2.037 21.351,-1.709 1.474,0.056 2.901,0.165 4.294,0.338 3.034,0.334 5.869,0.939 8.381,1.846 1.015,0.377 2.156,0.773 3.373,1.191 15.029,5.094 43.259,12.709 43.259,12.709 C 136.855,100.333 90.701,83.291 69.947,79.56 55.533,76.981 48.538,68.935 41.808,59.316 38.867,55.086 35.964,50.555 32.538,46.048 21.254,31.301 13.262,30.572 3.004,27.778 -15.232,24.553 -16.975,20.58 -19.622,17.284 -22.27,13.964 -20.511,1.259 0,0"
               style="fill:#ffd2a8;fill-opacity:1;fill-rule:nonzero;stroke:none"
               id="path240" /></g><g
             id="g242"
             transform="translate(260.3262,316.9536)"><path
               d="m 0,0 c 0,0 3.083,-13.779 1.974,-14.791 -1.11,-1.011 -14.954,-5.508 -18.543,-2.686 -3.589,2.823 -6.634,13.589 1.795,15.857 C -6.346,0.647 0,0 0,0"
               style="fill:#fcecd2;fill-opacity:1;fill-rule:nonzero;stroke:none"
               id="path244" /></g><g
             id="g246"><g
               id="g248" /><g
               id="g260"><g
                 clip-path="url(#clipPath252)"
                 opacity="0.399994"
                 id="g258"><g
                   transform="translate(403.8867,340.3955)"
                   id="g256"><path
                     d="m 0,0 c 0,0 -19.384,-20.701 -34.689,-21.956 -15.306,-1.254 -31.123,0.007 -42.402,4.082 C -44.29,-19.045 -47.673,-28.011 0,0"
                     style="fill:#ffd2a8;fill-opacity:1;fill-rule:nonzero;stroke:none"
                     id="path254" /></g></g></g></g><g
             id="g262"><g
               id="g264" /><g
               id="g276"><g
                 clip-path="url(#clipPath268)"
                 opacity="0.600006"
                 id="g274"><g
                   transform="translate(246.9795,298.5684)"
                   id="g272"><path
                     d="m 0,0 c 5.414,-0.263 14.424,2.777 15.309,3.584 1.107,1.009 -1.962,14.785 -1.962,14.785 0,0 -0.174,0.008 -0.51,0.036 C 14.346,13.246 15.608,2.235 0,0"
                     style="fill:#fcecd2;fill-opacity:1;fill-rule:nonzero;stroke:none"
                     id="path270" /></g></g></g></g><g
             id="g278"
             transform="translate(487.293,343.5112)"><path
               d="m 0,0 12.094,4.917 -39.158,96.313 -12.094,-4.917 c -0.959,-0.39 -1.421,-1.483 -1.03,-2.443 L -2.443,1.031 C -2.053,0.071 -0.959,-0.39 0,0"
               style="fill:#fcecd2;fill-opacity:1;fill-rule:nonzero;stroke:none"
               id="path280" /></g><g
             id="g282"
             transform="translate(507.9697,338.0288)"><path
               d="m 0,0 42.979,16.183 -48.144,118.418 -42.98,-16.184 c -2.064,-0.839 -3.057,-3.192 -2.217,-5.256 L -5.257,2.218 C -4.417,0.154 -2.064,-0.839 0,0"
               style="fill:#3c3c3b;fill-opacity:1;fill-rule:nonzero;stroke:none"
               id="path284" /></g><g
             id="g286"><g
               id="g288" /><g
               id="g300"><g
                 clip-path="url(#clipPath292)"
                 opacity="0.399994"
                 id="g298"><g
                   transform="translate(238.0747,310.5269)"
                   id="g296"><path
                     d="m 0,0 c -1.8,-2.26 -1.56,-8.85 5.23,-13.25 -17.63,0.65 -31.66,11.3 -31.66,24.34 0,13.46 14.95,24.37 33.38,24.37 15.87,0 29.15,-8.08 32.54,-18.92 C 33.9,13.07 28.66,12.13 22.63,10.49 4.39,7.27 2.65,3.3 0,0"
                     style="fill:#77c373;fill-opacity:1;fill-rule:nonzero;stroke:none"
                     id="path294" /></g></g></g></g></g></g><g
         id="g302"><g
           id="g304"
           clip-path="url(#clipPath308)"><g
             id="g310"
             transform="translate(245.6958,136.3057)"><path
               d="M 0,0 C 9.491,-0.567 17.611,-0.701 22.589,-0.734 27.802,3.509 29.106,9.189 28.805,14.47 18.914,9.791 9.223,4.946 0,0"
               style="fill:#f4c198;fill-opacity:1;fill-rule:nonzero;stroke:none"
               id="path312" /></g><g
             id="g314"
             transform="translate(210.9766,115.3545)"><path
               d="m 0,0 c 15.739,-2.774 30.943,-4.211 41.269,-4.979 h 0.034 c 9.356,2.505 13.265,12.096 12.898,23.124 0.668,0.367 1.337,0.768 1.904,1.169 -5.012,-0.467 -12.999,-0.768 -24.059,0.167 H 32.012 C 20.417,13.166 9.59,6.649 0,0"
               style="fill:#f4c198;fill-opacity:1;fill-rule:nonzero;stroke:none"
               id="path316" /></g><g
             id="g318"
             transform="translate(172.8818,99.2471)"><path
               d="M 0,0 C 13.132,-9.925 46.549,-14.201 61.285,-15.672 76.39,-13.7 75.587,0.702 72.948,9.657 63.491,9.858 52.563,11.161 36.657,15.104 30.208,10.56 24.327,5.948 19.214,1.337 17.343,4.144 15.639,6.717 14.035,9.123 12.598,8.021 11.161,6.951 9.757,5.849 4.845,9.591 -1.537,16.341 -7.652,23.291 -9.089,22.289 -10.56,21.32 -12.13,20.384 l -0.034,-0.033 c 0,-0.034 -0.033,-0.034 -0.033,-0.034 C -12.631,19.549 -16.207,12.264 0,0"
               style="fill:#f4c198;fill-opacity:1;fill-rule:nonzero;stroke:none"
               id="path320" /></g><g
             id="g322"
             transform="translate(48.4058,165.2441)"><path
               d="m 0,0 v -101.484 l 42.172,0.4 c 0,0 12.965,-3.742 41.369,-7.92 20.651,-3.041 40.601,0.769 58.646,2.273 -19.181,4.979 -30.911,20.752 -29.541,28.336 1.471,8.188 10.293,8.355 10.961,8.355 -0.401,-0.167 -7.118,-2.94 -8.588,-7.786 -1.905,-14.236 20.685,-24.828 30.242,-28.671 8.467,-3.692 12.917,-4.123 18.134,-3.692 19.88,1.641 17.086,22.271 12.509,28.654 -9.023,1.136 -19.716,2.472 -27.068,3.441 -15.037,1.939 -31.311,11.262 -36.056,19.916 -4.377,7.92 -1.069,11.897 -0.501,12.498 C 96.206,-55.304 74.285,-60.283 46.349,-49.689 17.042,-38.563 15.94,-19.181 23.358,-1.47 10.426,-2.807 0,0 0,0"
               style="fill:#f4c198;fill-opacity:1;fill-rule:nonzero;stroke:none"
               id="path324" /></g><g
             id="g326"
             transform="translate(243.0225,134.8359)"><path
               d="m 0,0 c 11.061,-0.936 19.047,-0.635 24.06,-0.167 0.434,0.301 0.836,0.602 1.203,0.902 C 20.284,0.769 12.164,0.902 2.673,1.47 1.771,1.002 0.902,0.501 0,0"
               style="fill:#e5ae89;fill-opacity:1;fill-rule:nonzero;stroke:none"
               id="path328" /></g><g
             id="g330"
             transform="translate(245.8296,108.9043)"><path
               d="M 0,0 C -0.101,0.268 -0.201,0.535 -0.268,0.803 2.239,0.669 4.411,0.869 6.416,1.471 -3.91,2.239 -19.114,3.676 -34.853,6.45 h -0.034 C -35.388,6.115 -35.822,5.781 -36.291,5.447 -20.384,1.504 -9.457,0.201 0,0"
               style="fill:#e5ae89;fill-opacity:1;fill-rule:nonzero;stroke:none"
               id="path332" /></g><g
             id="g334"
             transform="translate(161.186,107.0664)"><path
               d="m 0,0 c 4.745,-8.654 21.019,-17.978 36.056,-19.916 7.352,-0.969 18.045,-2.306 27.068,-3.441 -0.034,0.033 -0.034,0.066 -0.067,0.1 3.909,-0.568 7.184,-0.601 9.924,-0.234 -14.736,1.47 -48.153,5.747 -61.285,15.672 C -4.511,4.444 -0.936,11.729 -0.501,12.498 -1.069,11.896 -4.377,7.92 0,0"
               style="fill:#e5ae89;fill-opacity:1;fill-rule:nonzero;stroke:none"
               id="path336" /></g><g
             id="g338"
             transform="translate(190.5923,58.5127)"><path
               d="m 0,0 h 0.034 c 1.035,0.101 2.038,0.167 3.04,0.234 -9.557,3.843 -32.146,14.436 -30.241,28.671 1.47,4.846 8.187,7.619 8.587,7.786 -0.668,0 -9.489,-0.167 -10.96,-8.354 C -30.91,20.752 -19.181,4.979 0,0"
               style="fill:#e5ae89;fill-opacity:1;fill-rule:nonzero;stroke:none"
               id="path340" /></g><g
             id="g342"
             transform="translate(165.2295,122.5381)"><path
               d="m 0,0 c 6.115,-6.95 12.498,-13.7 17.41,-17.442 1.403,1.102 2.84,2.171 4.277,3.274 3.91,2.94 7.953,5.848 12.164,8.722 0.2,0.167 0.4,0.3 0.601,0.434 9.49,6.483 19.615,12.798 30.142,18.847 0.568,0.367 1.135,0.701 1.737,1.002 13.3,7.652 27.201,14.904 41.236,21.721 69.004,33.617 132.651,53.316 132.651,53.316 0,0 -12.263,17.275 -38.996,35.654 -13.367,-2.205 -34.675,-14.017 -85.736,-37.509 -5.213,-2.406 -10.425,-4.812 -15.638,-7.251 2.439,0 5.112,-0.703 8.053,-2.473 13.367,-8.02 -2.105,-24.294 -5.447,-27.234 -0.468,-0.402 -1.434,-0.165 -1.568,-0.666 C 92.498,46.752 84.978,42.405 77.158,38.931 64.627,35.488 48.353,33.183 28.538,34.787 27.468,30.978 20.718,18.079 8.254,6.684 L 8.22,6.65 C 5.714,4.345 2.974,2.105 0,0"
               style="fill:#2a9a51;fill-opacity:1;fill-rule:nonzero;stroke:none"
               id="path344" /></g><g
             id="g346"
             transform="translate(391.8779,217.3516)"><path
               d="m 0,0 c 0,0 -63.642,-19.704 -132.65,-53.32 -14.033,-6.814 -27.936,-14.069 -41.231,-21.72 -0.608,-0.295 -1.169,-0.636 -1.741,-1.004 -10.524,-6.049 -20.651,-12.365 -30.144,-18.848 -0.203,-0.129 -0.396,-0.266 -0.599,-0.432 -4.143,-2.826 -8.13,-5.691 -11.979,-8.581 -2.734,2.817 -5.579,5.948 -8.369,9.115 2.974,2.108 5.717,4.346 8.222,6.657 l 0.037,0.028 c 12.457,11.398 19.206,24.297 20.284,28.11 19.814,-1.611 36.084,0.699 48.615,4.143 7.817,3.471 15.339,7.817 23.727,11.463 0.139,0.497 1.105,0.258 1.574,0.663 3.333,2.937 18.812,19.216 5.442,27.236 -2.937,1.767 -5.617,2.468 -8.056,2.468 5.221,2.439 10.431,4.851 15.643,7.254 45.052,20.717 66.938,32.355 80.647,36.324 C -9.677,13.627 0,0 0,0"
               style="fill:#2fa754;fill-opacity:1;fill-rule:nonzero;stroke:none"
               id="path348" /></g><g
             id="g350"
             transform="translate(186.9165,108.3701)"><path
               d="m 0,0 c 1.604,-2.406 3.308,-4.979 5.18,-7.786 5.112,4.611 10.993,9.223 17.443,13.767 0.468,0.334 0.902,0.668 1.403,1.003 h 0.034 c 9.59,6.65 20.417,13.166 32.012,19.482 h 0.034 c 0.902,0.501 1.771,1.002 2.673,1.47 9.223,4.946 18.914,9.791 28.805,14.469 74.919,35.287 129.099,49.768 129.099,49.768 l -7.352,8.956 C 192.957,95.982 154.884,84.343 85.88,50.726 71.845,43.909 57.944,36.657 44.644,29.005 44.042,28.704 43.475,28.37 42.907,28.003 32.38,21.954 22.255,15.639 12.765,9.156 12.564,9.022 12.364,8.889 12.164,8.722 7.953,5.848 3.91,2.94 0,0"
               style="fill:#23944e;fill-opacity:1;fill-rule:nonzero;stroke:none"
               id="path352" /></g><g
             id="g354"
             transform="translate(94.7544,115.5547)"><path
               d="m 0,0 c 27.936,-10.594 49.857,-5.614 65.93,4.01 0,0 0.034,0 0.034,0.033 l 0.033,0.033 c 1.571,0.937 3.041,1.905 4.478,2.907 2.974,2.106 5.714,4.345 8.22,6.651 l 0.034,0.033 c 12.464,11.395 19.214,24.294 20.284,28.104 19.815,-1.605 36.089,0.701 48.62,4.143 7.82,3.475 13.568,6.048 21.954,9.69 0.134,0.501 2.874,2.039 3.342,2.44 3.342,2.94 18.814,19.215 5.447,27.234 -2.941,1.771 -5.614,2.473 -8.053,2.473 h -0.033 c -0.769,0 -1.504,-0.066 -2.24,-0.2 -4.277,-0.769 -7.819,-3.543 -10.86,-5.882 -0.033,-0.033 -0.066,-0.033 -0.066,-0.066 -1.905,-1.471 -3.643,-2.808 -5.28,-3.342 -0.234,-0.068 -0.435,-0.134 -0.636,-0.167 -0.601,-0.134 -1.269,-0.2 -2.071,-0.2 -7.452,-0.435 -22.79,2.272 -33.015,1.871 C 104.86,79.363 96.907,81.034 85.211,84.777 73.516,88.553 21.721,70.174 0.835,56.373 -6.917,51.261 -15.372,49.021 -22.99,48.22 -30.409,30.509 -29.306,11.127 0,0"
               style="fill:#f4c198;fill-opacity:1;fill-rule:nonzero;stroke:none"
               id="path356" /></g><g
             id="g358"
             transform="translate(246.5981,193.8154)"><path
               d="M 0,0 C 1.403,-2.439 4.445,-5.347 7.786,-6.583 12.932,-8.555 21.821,-0.067 21.821,2.606 20.284,7.084 17.978,8.722 16.207,9.29 11.929,8.521 8.387,5.747 5.346,3.408 5.313,3.375 5.28,3.375 5.28,3.342 3.375,1.871 1.637,0.534 0,0"
               style="fill:#fff4e3;fill-opacity:1;fill-rule:nonzero;stroke:none"
               id="path360" /></g><g
             id="g362"><g
               id="g364" /><g
               id="g376"><g
                 clip-path="url(#clipPath368)"
                 opacity="0.5"
                 id="g374"><g
                   transform="translate(268.418,196.4219)"
                   id="g372"><path
                     d="m 0,0 c 0,-2.68 -8.89,-11.159 -14.029,-9.189 -3.351,1.229 -6.39,4.139 -7.79,6.58 0.559,0.189 1.139,0.46 1.73,0.819 1.579,-1.739 3.739,-3.39 6.06,-4.25 4.34,-1.659 11.34,4.12 13.429,7.57 C -0.39,1.061 -0.189,0.551 0,0"
                     style="fill:#eadece;fill-opacity:1;fill-rule:nonzero;stroke:none"
                     id="path370" /></g></g></g></g><g
             id="g378"
             transform="translate(193.7671,157.3252)"><path
               d="M 0,0 C 0,0 -18.592,-50.169 -77.75,-49.479 -68.542,-45.195 -31.358,-47.43 0,0"
               style="fill:#e5ae89;fill-opacity:1;fill-rule:nonzero;stroke:none"
               id="path380" /></g><g
             id="g382"
             transform="translate(173.7563,92.3047)"><path
               d="m 0,0 c -0.93,0.17 -1.875,-0.151 -2.513,-0.85 -2.045,-2.242 -6.158,-7.517 -3.864,-11.576 2.992,-5.294 9.177,-6.675 11.249,-4.603 2.071,2.072 6.081,8.632 4.834,12.315 C 8.757,-1.916 2.805,-0.513 0,0"
               style="fill:#fff4e3;fill-opacity:1;fill-rule:nonzero;stroke:none"
               id="path384" /></g><g
             id="g386"><g
               id="g388" /><g
               id="g400"><g
                 clip-path="url(#clipPath392)"
                 opacity="0.5"
                 id="g398"><g
                   transform="translate(183.6729,85.1953)"
                   id="g396"><path
                     d="m 0,0 c -0.414,-3.646 -3.351,-8.25 -5.018,-9.926 -2.081,-2.062 -8.259,-0.68 -11.251,4.604 -1.041,1.842 -0.764,3.931 0.046,5.875 -0.092,-1.069 0.092,-2.127 0.644,-3.113 2.993,-5.285 9.18,-6.666 11.243,-4.603 C -3.057,-5.884 -1.068,-2.938 0,0"
                     style="fill:#eadece;fill-opacity:1;fill-rule:nonzero;stroke:none"
                     id="path394" /></g></g></g></g><g
             id="g402"
             transform="translate(166.5483,121.0488)"><path
               d="m 0,0 c 0,0 -4.724,-4.686 -3.803,-7.218 0.921,-2.531 5.475,-8.991 10.449,-5.991 l 3.39,2.587 z"
               style="fill:#fff4e3;fill-opacity:1;fill-rule:nonzero;stroke:none"
               id="path404" /></g><g
             id="g406"><g
               id="g408" /><g
               id="g420"><g
                 clip-path="url(#clipPath412)"
                 opacity="0.5"
                 id="g418"><g
                   transform="translate(176.5859,110.4277)"
                   id="g416"><path
                     d="m 0,0 -3.389,-2.588 c -4.971,-3.001 -9.529,3.462 -10.45,5.994 -0.203,0.543 -0.138,1.188 0.083,1.869 1.105,-2.67 5.543,-8.672 10.367,-5.754 1.022,0.773 1.731,1.317 2.229,1.704 z"
                     style="fill:#eadece;fill-opacity:1;fill-rule:nonzero;stroke:none"
                     id="path414" /></g></g></g></g><g
             id="g422"><g
               id="g424" /><g
               id="g436"><g
                 clip-path="url(#clipPath428)"
                 opacity="0.300003"
                 id="g434"><g
                   transform="translate(305.2568,209.2871)"
                   id="g432"><path
                     d="m 0,0 c 0,-16.656 -13.498,-30.154 -30.154,-30.154 -0.773,0 -1.537,0.027 -2.292,0.092 4.88,6.289 9.778,16.04 0.359,21.683 -2.937,1.768 -5.617,2.468 -8.057,2.468 5.221,2.44 10.432,4.852 15.644,7.256 8.111,3.728 15.478,7.163 22.171,10.311 C -0.828,8.075 0,4.134 0,0"
                     style="fill:#2fa754;fill-opacity:1;fill-rule:nonzero;stroke:none"
                     id="path430" /></g></g></g></g><g
             id="g438"
             transform="translate(52.4004,55.0957)"><path
               d="M 0,0 H -15.796 V 117.279 H 0 c 3.141,0 5.687,-2.547 5.687,-5.687 V 5.687 C 5.687,2.546 3.141,0 0,0"
               style="fill:#fcecd2;fill-opacity:1;fill-rule:nonzero;stroke:none"
               id="path440" /></g><g
             id="g442"
             transform="translate(34.9819,48.9961)"><path
               d="M 0,0 H -35.667 V 129.824 H 0 c 2.158,0 3.908,-1.75 3.908,-3.908 V 3.908 C 3.908,1.75 2.158,0 0,0"
               style="fill:#3c3c3b;fill-opacity:1;fill-rule:nonzero;stroke:none"
               id="path444" /></g></g></g></g></g></svg>
