<?xml version="1.0" encoding="UTF-8" standalone="no"?>
<svg
   xmlns:dc="http://purl.org/dc/elements/1.1/"
   xmlns:cc="http://creativecommons.org/ns#"
   xmlns:rdf="http://www.w3.org/1999/02/22-rdf-syntax-ns#"
   xmlns:svg="http://www.w3.org/2000/svg"
   xmlns="http://www.w3.org/2000/svg"
   xmlns:sodipodi="http://sodipodi.sourceforge.net/DTD/sodipodi-0.dtd"
   xmlns:inkscape="http://www.inkscape.org/namespaces/inkscape"
   width="17.245165mm"
   height="17.245165mm"
   viewBox="0 0 17.245165 17.245165"
   version="1.1"
   id="svg8"
   inkscape:version="1.0.1 (3bc2e813f5, 2020-09-07)"
   sodipodi:docname="HantamKovid.svg"
   inkscape:export-filename="/home/deve/Projects/Udacoding/Logo/HantamKovid.png"
   inkscape:export-xdpi="1520.0087"
   inkscape:export-ydpi="1520.0087">
  <defs
     id="defs2" />
  <sodipodi:namedview
     id="base"
     pagecolor="#ffffff"
     bordercolor="#666666"
     borderopacity="1.0"
     inkscape:pageopacity="0.0"
     inkscape:pageshadow="2"
     inkscape:zoom="5.6"
     inkscape:cx="57.313609"
     inkscape:cy="37.937882"
     inkscape:document-units="mm"
     inkscape:current-layer="layer1"
     inkscape:document-rotation="0"
     showgrid="false"
     inkscape:window-width="1360"
     inkscape:window-height="736"
     inkscape:window-x="0"
     inkscape:window-y="16"
     inkscape:window-maximized="1" />
  <metadata
     id="metadata5">
    <rdf:RDF>
      <cc:Work
         rdf:about="">
        <dc:format>image/svg+xml</dc:format>
        <dc:type
           rdf:resource="http://purl.org/dc/dcmitype/StillImage" />
        <dc:title></dc:title>
      </cc:Work>
    </rdf:RDF>
  </metadata>
  <g
     inkscape:label="Layer 1"
     inkscape:groupmode="layer"
     id="layer1"
     transform="translate(-38.216892,-42.816833)">
    <path
       style="fill:url(#meshgradient1043);fill-opacity:1;stroke-width:0.264583"
       d="m 70.387003,75.783496 c -1.30969,-0.347898 -3.47151,-0.73641 -4.80405,-0.863349 -2.82871,-0.269459 -3.948199,-0.80223 -4.72095,-2.246701 -0.33221,-0.62098 -0.775369,-1.041358 -1.19063,-1.129438 -0.363799,-0.0772 -0.89958,-0.189391 -1.19062,-0.24938 -0.291049,-0.06 -1.5412,-0.715621 -2.77813,-1.456963 l -2.248959,-1.347898 -1.852081,0.179498 c -2.41017,0.233601 -3.308569,0.183661 -5.10248,-0.283588 -1.120689,-0.291902 -2.297099,-0.344011 -4.84987,-0.21481 l -3.37028,0.170569 -0.79152,-0.79152 c -0.54166,-0.54166 -1.01651,-1.513101 -1.5042,-3.07731 -0.39197,-1.25717 -1.08631,-2.84059 -1.54299,-3.51869 -0.45668,-0.67811 -1.16098,-1.7215 -1.56511,-2.31864 -0.89161,-1.31746 -1.32147,-2.79845 -1.10038,-3.79106 0.0904,-0.40564 0.67626,-1.80908 1.30203,-3.11877 0.62576,-1.30969 1.44433,-3.04006 1.81904,-3.84528 0.77332,-1.66178 2.69384,-3.71652 4.0954,-4.38161 0.5402,-0.25634 2.02657,-0.53024 3.470341,-0.6395 2.91383,-0.220498 2.899989,-0.215842 5.700429,-1.916978 l 2.116671,-1.285773 2.538809,0.178777 c 2.930511,0.206358 3.01454,0.176713 5.525861,-1.949469 3.02074,-2.557473 4.171749,-2.685515 6.80094,-0.756556 0.846209,0.620839 1.686121,1.21845 1.866469,1.328026 0.18034,0.109574 1.01378,0.06542 1.852081,-0.09813 1.844201,-0.359794 4.629679,0.01096 5.436711,0.723631 0.70145,0.619448 2.123308,3.730442 2.694718,5.895982 0.713631,2.70453 0.865912,9.77354 0.271552,12.60575 -0.257162,1.22543 -0.421823,2.25634 -0.365892,2.29091 0.0559,0.0346 0.674031,0.33014 1.373581,0.65681 0.93761,0.43784 1.372241,0.83408 1.653641,1.50758 0.526328,1.259669 0.477819,4.02053 -0.113181,6.44279 -0.272211,1.11565 -0.63619,2.705261 -0.80885,3.532471 -0.346691,1.661019 -1.474369,3.55006 -2.43836,4.084611 -0.942041,0.522388 -3.51985,0.39058 -6.179741,-0.315992 z m 6.49491,-1.872128 c 0.131522,-0.131522 0.433671,-1.188562 0.671441,-2.348982 0.237771,-1.160417 0.737151,-2.824231 1.109729,-3.697361 1.21626,-2.850219 0.684591,-5.653039 -1.16015,-6.116039 -0.782609,-0.19642 -4.60239,1.374319 -4.60239,1.89255 0,0.184399 0.379222,0.467469 0.842711,0.629039 0.875469,0.305192 1.803119,1.010391 1.803119,1.37074 0,0.1143 -0.8632,-0.0937 -1.918229,-0.462309 -3.746071,-1.308671 -8.63813,-1.068469 -10.343952,0.5079 -0.702407,0.649089 -1.496149,3.189409 -1.496149,4.788313 0,2.539748 1.27346,3.190427 6.835841,3.492799 2.06797,0.112418 3.931308,0.363188 4.70921,0.63378 1.209961,0.420878 1.347949,0.420769 2.29847,-0.0021 0.55617,-0.24725 1.11883,-0.557141 1.250349,-0.68866 z M 60.940434,68.521575 c 0.175141,-1.02135 0.318439,-2.033379 0.318439,-2.248958 0,-0.635112 -2.52254,-0.492361 -4.7625,0.269499 -1.069619,0.363799 -2.155009,0.66145 -2.41198,0.66145 -0.946849,0 -0.730609,0.503719 0.556131,1.295461 1.5626,0.96148 4.04357,1.85824 5.175431,1.870681 0.792898,0.009 0.811239,-0.02141 1.124479,-1.848133 z m -10.14605,-0.61399 c 0.469389,-0.34323 0.46928,-0.36019 -0.003,-0.54162 -0.26845,-0.103018 -1.39913,-0.257559 -2.51262,-0.343419 -2.45538,-0.189351 -3.02672,0.226539 -1.11747,0.813409 1.61327,0.4959 3.01559,0.523541 3.63361,0.0716 z m -8.309931,-1.6506 c 1.00939,-0.229579 1.90142,-0.524489 1.982301,-0.655349 0.0809,-0.130871 -0.004,-0.746699 -0.18772,-1.36852 -0.230221,-0.77751 -0.337201,-3.21692 -0.342571,-7.81116 -0.004,-3.67432 0.0249,-6.68065 0.0649,-6.68073 0.438231,-9.26e-4 0.71062,2.31003 0.84202,7.14359 0.17996,6.620119 0.320701,7.106791 2.30969,7.98662 1.725901,0.76344 4.51431,1.09724 6.342601,0.759259 0.824649,-0.15244 1.54155,-0.319349 1.59311,-0.370909 0.0516,-0.0516 0.21116,-0.118266 -0.298661,-0.964895 -1.11731,-1.85547 -1.336689,-2.783121 -1.31283,-5.551271 0.0213,-2.4679 0.592291,-5.38769 1.707571,-8.73125 l 0.79429,-2.38125 -0.144311,1.79926 c -0.0794,0.98959 -0.382229,2.95412 -0.67304,4.36562 -1.144459,5.55499 -0.957939,7.87136 0.773261,9.602551 0.75169,0.7517 1.32646,1.044049 2.554259,1.29921 1.7134,0.356079 4.272071,-0.439235 5.512401,-0.916736 l 0.75847,-0.291989 -0.229301,-2.30992 c -0.433908,-4.37114 -0.235558,-8.39006 0.543211,-11.00616 0.38413,-1.29044 0.88033,-2.65966 1.102648,-3.04271 l 0.404223,-0.69647 -0.149662,0.66146 c -0.81457,3.60029 -1.05266,5.8078 -1.058949,9.81841 -0.008,5.14249 0.0651,5.34526 1.78113,4.93832 0.614269,-0.14566 2.423189,-0.34059 4.01983,-0.43318 l 2.902979,-0.16834 0.60352,-1.05833 c 1.683991,-2.95308 2.319391,-7.68232 1.545392,-11.50217 -0.24833,-1.22556 -0.57485,-2.45876 -0.725602,-2.74044 -1.237818,-4.008246 -0.997529,-6.508554 -3.500429,-6.791769 -0.221081,0 -1.031441,0.251054 -1.80082,0.557897 -3.35883,1.339579 -3.263181,1.325541 -4.28883,0.629519 -1.034291,-0.701891 -1.280581,-0.549522 -1.192501,0.737747 0.186862,2.731066 -0.394528,3.182076 -0.673201,0.522232 -0.24148,-2.304914 -0.787259,-3.444854 -1.904359,-3.977562 -0.840658,-0.400885 -0.948428,-0.39286 -2.008929,0.149604 -0.616341,0.315267 -1.807501,1.132213 -2.64703,1.815434 -1.3009,1.058697 -1.735121,1.259532 -2.93911,1.359376 l -1.412701,0.117152 0.130391,1.82243 c 0.14577,2.03729 -0.20399,2.43029 -0.697361,0.78359 -0.317019,-1.058115 -1.61422,-2.400752 -2.3195,-2.400752 -0.49594,0 -1.70702,0.626393 -3.45503,1.787012 -0.93581,0.62134 -1.82329,0.96796 -2.7796,1.08563 l -1.40485,0.17285 0.0944,1.7184 c 0.10191,1.85484 -0.0635,1.88821 -0.88695,0.17887 -0.9767,-2.02746 -2.43722,-2.25201 -4.25672,-0.65447 -1.40215,1.23111 -4.40285,7.48659 -4.55407,9.49376 -0.10911,1.4482 0.42071,3.15128 0.98034,3.15128 0.12483,0 0.30862,-0.76243 0.40841,-1.69428 0.0998,-0.93186 0.32202,-1.88368 0.49384,-2.11516 0.24955,-0.33618 0.31841,0.0199 0.34227,1.76954 0.0251,1.83955 0.20397,2.68617 1.11679,5.28561 0.59781,1.702379 1.33093,3.57352 1.62916,4.158091 0.4976,0.975389 0.63004,1.062868 1.609101,1.062868 0.586779,0 1.89274,-0.187838 2.902119,-0.41742 z"
       id="path896"
       sodipodi:nodetypes="ssscssccsscsccccccccccssssscsscscsssscscssssccssscccssssscsccccccsccccccssccsccccsscscscscsscsscccscsssssccssccccscsscccscsss" />
    <rect
       style="fill:#ffffff;fill-opacity:1;stroke-width:0.765;stroke-linecap:round;stroke-linejoin:round;paint-order:markers fill stroke"
       id="rect2189"
       width="17.245165"
       height="17.245165"
       x="38.216892"
       y="42.816833"
       ry="0.31845778" />
    <path
       style="fill:#f44336;fill-opacity:1;stroke-width:0.0796439"
       d="m 52.380167,54.229233 c -0.406197,0.03734 -1.057441,0.151472 -1.447208,0.253629 -0.827396,0.216862 -1.198987,0.18225 -1.567021,-0.145956 -0.158218,-0.141095 -0.327016,-0.214002 -0.453505,-0.195881 -0.110814,0.01587 -0.273868,0.03966 -0.362339,0.05285 -0.08848,0.01319 -0.509722,-0.0426 -0.936111,-0.124005 l -0.775253,-0.147994 -0.504862,0.242585 c -0.656992,0.315687 -0.916082,0.394635 -1.471499,0.448404 -0.34698,0.03359 -0.684868,0.140722 -1.392978,0.441674 l -0.934879,0.397328 -0.3057,-0.141718 c -0.2092,-0.09698 -0.444037,-0.322352 -0.743907,-0.713928 -0.24101,-0.314712 -0.601276,-0.690312 -0.80059,-0.834658 -0.199316,-0.144349 -0.506456,-0.366288 -0.682532,-0.493195 -0.38847,-0.279996 -0.663375,-0.654042 -0.703709,-0.957488 -0.01647,-0.12401 0.0038,-0.581355 0.04493,-1.016337 0.04119,-0.434981 0.0933,-1.008833 0.115794,-1.275228 0.04643,-0.549778 0.37638,-1.329455 0.70361,-1.662614 0.126123,-0.128409 0.517846,-0.359791 0.914583,-0.540228 0.800699,-0.364156 0.79727,-0.361406 1.412546,-1.132293 l 0.465048,-0.58266 0.736067,-0.212462 c 0.849631,-0.245242 0.870309,-0.262324 1.359842,-1.123393 0.588833,-1.035734 0.900882,-1.191153 1.84379,-0.91832 0.303477,0.08781 0.602769,0.169711 0.665091,0.181999 0.06232,0.01228 0.293303,-0.08653 0.513292,-0.219588 0.483959,-0.292725 1.309628,-0.47648 1.611545,-0.358654 0.262419,0.102411 0.986543,0.834391 1.372364,1.387251 0.481852,0.690461 1.257154,2.672613 1.38255,3.534654 0.05426,0.372984 0.114507,0.681409 0.133897,0.685386 0.01938,0.004 0.224702,0.02349 0.456256,0.04334 0.310353,0.02662 0.474239,0.09359 0.623537,0.254794 0.279241,0.301501 0.551526,1.086832 0.635406,1.83266 0.03863,0.343516 0.100418,0.830493 0.137314,1.082175 0.07407,0.505371 -0.04896,1.156085 -0.266043,1.407025 -0.212138,0.245227 -0.954362,0.475003 -1.779324,0.550836 z m 1.641738,-1.201916 c 0.02355,-0.0508 -5.51e-4,-0.380848 -0.05356,-0.733449 -0.053,-0.352603 -0.08422,-0.874578 -0.06936,-1.159946 0.0485,-0.931552 -0.392095,-1.668643 -0.961441,-1.608409 -0.241536,0.02555 -1.158417,0.865177 -1.104736,1.011646 0.01911,0.05211 0.155605,0.09284 0.303338,0.09049 0.27905,-0.0044 0.614283,0.09879 0.65161,0.200633 0.01184,0.0323 -0.253674,0.06294 -0.590041,0.06804 -1.19432,0.01817 -2.552089,0.592821 -2.870916,1.215055 -0.131285,0.256213 -0.09247,1.056409 0.07315,1.508311 0.263086,0.717812 0.690409,0.769801 2.293836,0.279066 0.596119,-0.182443 1.148734,-0.304587 1.396623,-0.30869 0.385572,-0.0064 0.424559,-0.02071 0.649402,-0.238686 0.131581,-0.127494 0.258505,-0.273363 0.282052,-0.324158 z m -5.063882,0.128014 c -0.0563,-0.306808 -0.120632,-0.607684 -0.142963,-0.668613 -0.0658,-0.179502 -0.763953,0.122147 -1.318117,0.569506 -0.264622,0.21362 -0.540556,0.410179 -0.613184,0.436798 -0.267609,0.09808 -0.154314,0.218049 0.291374,0.308529 0.541238,0.10988 1.335332,0.106339 1.656521,-0.0074 0.22503,-0.07959 0.227063,-0.09008 0.126369,-0.638824 z m -2.931197,0.877473 c 0.09711,-0.145631 0.09532,-0.150412 -0.05695,-0.152768 -0.08654,-0.0013 -0.422119,0.07214 -0.74572,0.163215 -0.713582,0.20083 -0.83198,0.377558 -0.231573,0.345652 0.50733,-0.02696 0.906533,-0.164409 1.03439,-0.356162 z m -2.51963,0.394295 c 0.261504,-0.169447 0.48307,-0.345201 0.492374,-0.390565 0.0093,-0.04537 -0.07848,-0.210626 -0.194817,-0.367342 -0.145608,-0.1959 -0.428537,-0.874273 -0.905961,-2.172194 -0.381745,-1.038065 -0.684995,-1.890742 -0.673699,-1.894908 0.123762,-0.04565 0.440135,0.579276 0.977969,1.931781 0.736626,1.852413 0.826817,1.975384 1.480108,2.018016 0.566877,0.03699 1.389547,-0.157512 1.871269,-0.442424 0.217281,-0.128509 0.40261,-0.249944 0.411841,-0.269857 0.0092,-0.01993 0.04743,-0.0553 -0.184361,-0.241773 C 46.273927,52.189158 46.115831,51.9497 45.835827,51.164862 45.586204,50.465149 45.44513,49.580776 45.413991,48.520251 l -0.02218,-0.755296 0.145595,0.523477 c 0.08007,0.287914 0.19798,0.874522 0.262002,1.303581 0.251968,1.688568 0.544631,2.323926 1.213254,2.633884 0.290318,0.134588 0.48305,0.157677 0.856497,0.102605 0.521145,-0.07685 1.161923,-0.566676 1.463015,-0.830115 l 0.184121,-0.161093 -0.304087,-0.629104 c -0.575432,-1.190475 -0.935683,-2.346896 -0.986573,-3.16696 -0.0251,-0.40451 -0.0267,-0.842894 -0.0035,-0.974187 l 0.0421,-0.238715 0.02622,0.202452 c 0.142723,1.101935 0.304102,1.75051 0.717774,2.884687 0.530437,1.454259 0.572103,1.503996 1.014953,1.211222 0.158524,-0.104802 0.649588,-0.347274 1.091259,-0.538835 l 0.803036,-0.348292 0.06095,-0.361634 c 0.170046,-1.009075 -0.140261,-2.411526 -0.754707,-3.41096 -0.197139,-0.320659 -0.417168,-0.635376 -0.488954,-0.699372 -0.765051,-1.004635 -0.956139,-1.736191 -1.692875,-1.556967 -0.06248,0.0229 -0.265512,0.1778 -0.451177,0.344221 -0.810548,0.726542 -0.784969,0.712665 -1.146949,0.622193 -0.365031,-0.09124 -0.418857,-0.02266 -0.260617,0.332038 0.335718,0.75253 0.218118,0.940225 -0.136172,0.217336 -0.307009,-0.626427 -0.579348,-0.892075 -0.950258,-0.926918 -0.279123,-0.02622 -0.308751,-0.01279 -0.552289,0.250384 -0.14154,0.152949 -0.393574,0.507234 -0.560078,0.787298 -0.258008,0.433979 -0.359928,0.535721 -0.689871,0.688659 l -0.387138,0.179449 0.225634,0.50157 c 0.252237,0.560701 0.194093,0.708007 -0.115927,0.293704 -0.199207,-0.266217 -0.704917,-0.511314 -0.904252,-0.438256 -0.140168,0.05137 -0.417572,0.353865 -0.791388,0.862964 -0.200127,0.27255 -0.415051,0.462447 -0.673146,0.594766 l -0.379149,0.194378 0.204685,0.475896 c 0.220942,0.513679 0.177649,0.540246 -0.232151,0.142431 -0.486066,-0.471851 -0.922116,-0.384023 -1.270879,0.25597 -0.268764,0.493196 -0.468866,2.572028 -0.303688,3.154983 0.119179,0.420609 0.445341,0.84707 0.60351,0.789099 0.03528,-0.01293 0.0082,-0.247455 -0.06008,-0.521163 -0.06832,-0.273711 -0.104119,-0.565744 -0.07953,-0.648966 0.03571,-0.120866 0.09205,-0.02736 0.280039,0.464672 0.197648,0.517315 0.335902,0.738068 0.863164,1.378195 0.345306,0.41922 0.746335,0.872122 0.891179,1.006447 0.241675,0.224131 0.28817,0.235136 0.564883,0.133717 0.165842,-0.06079 0.515491,-0.249154 0.776991,-0.4186 z"
       id="path1166"
       sodipodi:nodetypes="ssscssccsscsccccccccccssssscsscscsssscscssssccssscccssssscsccccccsccccccssccsccccsscscscscsscsscccscsssssccssccccscsscccscsss" />
    <path
       style="fill:#f44336;stroke-width:0.0240504"
       d="m 44.905094,59.263513 c -0.03702,-0.02294 -0.03746,-0.09096 -8.59e-4,-0.143914 0.02926,-0.04235 0.02989,-0.08279 0.003,-0.195999 -0.01862,-0.07845 -0.04432,-0.152377 -0.0571,-0.164303 -0.01281,-0.01185 -0.06859,-0.01823 -0.124055,-0.01403 -0.09598,0.0073 -0.101173,0.0114 -0.108892,0.08449 -0.0051,0.04904 0.0045,0.09557 0.02676,0.128636 0.04025,0.0596 0.02067,0.09243 -0.05168,0.08685 -0.07481,-0.0058 -0.09287,-0.05756 -0.03955,-0.113588 0.05652,-0.05944 0.04139,-0.181875 -0.0236,-0.190748 -0.08398,-0.01148 -0.10583,0.01428 -0.15361,0.180784 -0.0435,0.15168 -0.04446,0.182918 -0.0084,0.273428 0.03405,0.0856 0.03463,0.106352 0.0031,0.127792 -0.04631,0.03149 -0.168851,-7.71e-4 -0.191008,-0.05028 -0.0095,-0.02128 0.0086,-0.06018 0.04365,-0.09376 0.06913,-0.06624 0.08568,-0.1301 0.08539,-0.329434 -1.99e-4,-0.140544 -0.0014,-0.143729 -0.06408,-0.166569 -0.03515,-0.0128 -0.06866,-0.02216 -0.07449,-0.02079 -0.02859,0.0067 -0.06898,0.190537 -0.05228,0.23781 0.02341,0.06646 -0.05875,0.108729 -0.127988,0.06581 -0.05345,-0.03312 -0.04519,-0.07236 0.02527,-0.11993 0.02819,-0.01897 0.06409,-0.07394 0.0798,-0.122046 l 0.02858,-0.08745 -0.08268,-0.05125 c -0.09565,-0.05928 -0.122657,-0.04467 -0.245566,0.132902 -0.05216,0.07535 -0.06777,0.122963 -0.05632,0.171761 0.01288,0.05485 0.0057,0.06991 -0.038,0.08016 -0.06457,0.01516 -0.119586,-0.01481 -0.13313,-0.07251 -0.0062,-0.02651 0.0074,-0.04622 0.03687,-0.05313 0.05911,-0.01388 0.180378,-0.187265 0.210846,-0.301469 0.02289,-0.08578 0.02199,-0.08833 -0.06535,-0.183539 -0.09711,-0.105913 -0.100129,-0.106189 -0.270371,-0.02607 -0.09213,0.04336 -0.132187,0.08062 -0.183383,0.17052 -0.06395,0.11233 -0.06684,0.114297 -0.122443,0.08356 -0.03146,-0.0174 -0.06391,-0.06115 -0.07251,-0.0978 -0.01528,-0.06507 -0.01317,-0.06679 0.108571,-0.08997 0.102999,-0.01972 0.143971,-0.04216 0.240599,-0.132694 0.120353,-0.112742 0.131941,-0.159895 0.05952,-0.242154 -0.04116,-0.04676 -0.13855,-0.01135 -0.18118,0.06589 -0.04216,0.07637 -0.09349,0.07151 -0.121616,-0.01149 -0.02834,-0.08349 -0.02832,-0.0834 0.06799,-0.07053 0.03842,0.0051 0.09808,-0.0042 0.132605,-0.02075 0.0508,-0.02427 0.05982,-0.04268 0.04727,-0.09612 -0.01407,-0.05994 -0.02697,-0.06611 -0.139846,-0.06666 -0.117854,-5.71e-4 -0.191503,0.01976 -0.329992,0.09106 -0.05364,0.02762 -0.06215,0.02461 -0.07393,-0.02558 -0.0073,-0.03125 -0.0032,-0.08074 0.0092,-0.110043 0.02218,-0.05235 0.02373,-0.05257 0.09101,-0.01374 0.05765,0.03329 0.09453,0.03339 0.234082,6.33e-4 l 0.165644,-0.03888 -0.004,-0.08874 c -0.0024,-0.05308 -0.01632,-0.09648 -0.035,-0.10793 -0.02967,-0.01839 -0.141864,0.0025 -0.261985,0.0488 -0.04655,0.0179 -0.06043,0.0113 -0.07789,-0.03705 -0.0344,-0.09545 0.0153,-0.133589 0.109997,-0.08436 0.0544,0.02828 0.108749,0.03512 0.168113,0.02119 0.07617,-0.01788 0.08876,-0.0305 0.09563,-0.09564 0.0075,-0.07125 0.0014,-0.07777 -0.120488,-0.128914 -0.1843,-0.07734 -0.23157,-0.08582 -0.338364,-0.06075 -0.08426,0.01978 -0.09667,0.01609 -0.108092,-0.03255 -0.01366,-0.05821 0.04149,-0.160461 0.08403,-0.155789 0.01394,0.0015 0.05803,0.03275 0.09801,0.06938 0.0455,0.04168 0.115685,0.07252 0.187587,0.08242 0.215019,0.02961 0.219286,0.02881 0.246625,-0.04626 0.02476,-0.06795 0.02329,-0.07069 -0.06489,-0.121278 -0.04962,-0.02845 -0.115447,-0.04582 -0.146283,-0.03858 -0.06477,0.01521 -0.0854,-0.03172 -0.0436,-0.09916 0.0403,-0.06502 0.0664,-0.06385 0.101716,0.0046 0.0312,0.06046 0.126417,0.123049 0.172878,0.113682 0.01384,-0.0028 0.04712,-0.04239 0.07405,-0.088 l 0.04898,-0.08294 -0.1328,-0.130571 c -0.101437,-0.09972 -0.153359,-0.132381 -0.219806,-0.138266 -0.04783,-0.0042 -0.08882,-0.01539 -0.09103,-0.02482 -0.0095,-0.04066 0.04054,-0.110717 0.09217,-0.128959 0.04875,-0.01721 0.06077,-0.0085 0.09244,0.06667 0.02666,0.06327 0.07594,0.110971 0.183802,0.177822 0.136903,0.08485 0.149763,0.08802 0.18074,0.04464 0.01834,-0.0257 0.0643,-0.07275 0.10213,-0.104606 0.06806,-0.0573 0.06832,-0.0591 0.02403,-0.175366 -0.05671,-0.148896 -0.133144,-0.256061 -0.202308,-0.283725 -0.07671,-0.03067 -0.08743,-0.105357 -0.02019,-0.140094 0.09905,-0.05111 0.13542,-0.02965 0.142594,0.08392 0.0053,0.08529 0.02426,0.123156 0.119216,0.240421 l 0.11281,0.139181 0.0713,-0.04162 c 0.04844,-0.02819 0.07054,-0.05991 0.06891,-0.09868 -0.0023,-0.05383 -0.01418,-0.07191 -0.117171,-0.177088 -0.03738,-0.03817 -0.03669,-0.04649 0.0062,-0.0749 0.106931,-0.07081 0.173538,-0.02195 0.131441,0.09642 -0.01236,0.03472 -0.0094,0.08588 0.0071,0.122293 0.0256,0.05645 0.03652,0.05993 0.111538,0.03557 l 0.08319,-0.02697 -0.01612,-0.165566 c -0.0139,-0.142963 -0.02468,-0.175238 -0.07886,-0.236442 -0.05379,-0.06078 -0.05866,-0.07516 -0.03405,-0.100833 0.03038,-0.03174 0.134993,-0.04061 0.177414,-0.01499 0.01441,0.0088 0.01026,0.04754 -0.0097,0.09032 -0.03596,0.0772 -0.02437,0.173013 0.03952,0.326454 0.02914,0.07002 0.04493,0.08132 0.106368,0.07609 0.09254,-0.0079 0.119812,-0.09713 0.0552,-0.180732 -0.06142,-0.07946 -0.0586,-0.09625 0.01933,-0.114544 0.0904,-0.02122 0.12336,0.02594 0.07388,0.105763 -0.05794,0.09349 -0.0163,0.18182 0.08799,0.18674 0.100815,0.0048 0.114225,-0.01428 0.171397,-0.244285 0.03645,-0.146551 0.03637,-0.175238 -5.27e-4,-0.230192 -0.05622,-0.08369 -0.04594,-0.132401 0.0319,-0.150673 0.06209,-0.01458 0.15599,0.02802 0.167219,0.07585 0.003,0.01288 -0.01831,0.04444 -0.04742,0.07008 -0.02911,0.02564 -0.06072,0.07755 -0.07024,0.115363 -0.01666,0.06623 -0.02412,0.402069 -0.0091,0.408189 0.004,0.0016 0.06593,0.02528 0.137538,0.05256 l 0.13016,0.04957 0.08419,-0.109888 c 0.05244,-0.06845 0.0798,-0.129204 0.07255,-0.161092 -0.0064,-0.02816 -0.0052,-0.06938 0.0026,-0.09159 0.01262,-0.03583 0.02251,-0.03806 0.08766,-0.01965 0.103856,0.02937 0.114012,0.101838 0.02155,0.154324 -0.04774,0.02713 -0.08859,0.08065 -0.116918,0.153219 -0.03845,0.09853 -0.06047,0.120211 -0.188672,0.18574 -0.415247,0.212243 -0.577455,0.705918 -0.384414,1.169939 0.03692,0.08863 0.09927,0.19991 0.138659,0.247235 0.259048,0.314157 0.649718,0.222152 0.843352,0.423443 0.09617,0.100548 0.141565,0.129782 0.211014,0.135924 0.104098,0.0092 0.123162,0.05307 0.0545,0.125291 -0.06675,0.0702 -0.122408,0.05817 -0.14333,-0.03095 -0.01291,-0.05501 -0.05306,-0.09616 -0.167367,-0.171474 -0.08269,-0.0545 -0.156683,-0.09737 -0.164418,-0.09525 -0.0077,0.0021 -0.03457,0.02898 -0.05964,0.05971 -0.04172,0.05112 -0.04167,0.06231 7.1e-4,0.131514 0.02703,0.04426 0.0729,0.08095 0.11037,0.08843 0.07819,0.0156 0.08866,0.04684 0.0323,0.09643 -0.06259,0.0551 -0.116575,0.03971 -0.115463,-0.03285 4.13e-4,-0.03309 -0.01465,-0.07706 -0.03382,-0.09759 -0.08367,-0.08999 -0.08697,-0.09102 -0.145594,-0.04571 -0.06321,0.04887 -0.06228,0.05907 0.02381,0.261001 0.04902,0.114982 0.08127,0.157986 0.146581,0.195449 0.06165,0.03535 0.08266,0.06186 0.0797,0.100442 -0.0032,0.04265 -0.02031,0.05482 -0.09152,0.0654 -0.07804,0.01153 -0.08811,0.0065 -0.0934,-0.04736 -0.01462,-0.149256 -0.04429,-0.222715 -0.136001,-0.336995 l -0.09833,-0.122485 -0.128391,0.0432 c -0.07063,0.02374 -0.136754,0.06079 -0.14699,0.08221 -0.01018,0.02141 -0.01622,0.104528 -0.01332,0.184647 0.0045,0.123875 0.01336,0.155117 0.0592,0.208723 0.02967,0.03466 0.05002,0.07475 0.04522,0.08907 -0.0099,0.0294 -0.128394,0.06286 -0.157916,0.04451 z m 0.131699,-0.818738 c 0.05149,-0.05764 0.0394,-0.13445 -0.02863,-0.181394 -0.06778,-0.04685 -0.217849,-0.0092 -0.264662,0.0665 -0.0464,0.07486 -0.0394,0.09744 0.04666,0.150755 0.08185,0.05072 0.182406,0.03618 0.246638,-0.03572 z m -0.624473,-0.04846 c 0.02875,-0.05772 -0.0025,-0.111201 -0.08615,-0.147622 -0.05877,-0.02556 -0.08034,-0.02427 -0.11573,0.0069 -0.05566,0.049 -0.04222,0.104403 0.03826,0.157829 0.07273,0.0483 0.134255,0.04185 0.163614,-0.01711 z m 0.258958,-0.370258 c 0.06384,-0.05622 0.06189,-0.170958 -0.0042,-0.250293 -0.102876,-0.123402 -0.284085,-0.08709 -0.313998,0.06298 -0.03503,0.175495 0.184789,0.304921 0.318261,0.187392 z m -0.643713,0.01331 c 0.05743,-0.06428 0.03062,-0.180868 -0.05453,-0.237429 -0.0749,-0.04973 -0.143936,-0.0394 -0.190864,0.02852 -0.04926,0.07126 -0.01913,0.154764 0.0774,0.214596 0.09755,0.06046 0.109253,0.06006 0.167997,-0.0057 z m 0.415201,-0.617852 c 0.04191,-0.02849 0.07616,-0.153852 0.06039,-0.221065 -0.01578,-0.06722 -0.140741,-0.139998 -0.211735,-0.123333 -0.03206,0.0075 -0.07966,0.04372 -0.105787,0.08042 -0.134493,0.188965 0.06549,0.39425 0.257144,0.263976 z m -0.634338,0.03523 c 0.03084,-0.07712 0.01763,-0.132954 -0.0399,-0.16861 -0.05364,-0.03325 -0.114987,0.0088 -0.137869,0.09454 -0.01111,0.04164 -0.0029,0.06483 0.03631,0.102074 0.06306,0.05997 0.109966,0.05068 0.141445,-0.028 z m 0.321156,-0.564943 c 0.052,-0.07764 0.02726,-0.191608 -0.04575,-0.211137 -0.146514,-0.03911 -0.298076,0.207055 -0.1746,0.28359 0.05439,0.03371 0.176105,-0.0063 0.220434,-0.07247 z m 0.55423,-0.266417 c 0.08091,-0.09056 -0.004,-0.182932 -0.139099,-0.15123 -0.140949,0.03309 -0.164271,0.171637 -0.03377,0.200759 0.08124,0.01813 0.123168,0.0061 0.172898,-0.04951 z"
       id="path847"
       sodipodi:nodetypes="sscssssssssssssssssssscsssssssssssssssssssssssssscsssssssssssssssssscscssssssssssssscssssssscsssscsssssssssssssscscssssssccsssscssssssssssssscsssssssssssssssssssssssssssssssssccssccssssssssss" />
    <text
       xml:space="preserve"
       style="font-style:normal;font-variant:normal;font-weight:500;font-stretch:normal;font-size:1.95567px;line-height:1.25;font-family:Iosevka;-inkscape-font-specification:'Iosevka Medium';letter-spacing:0px;word-spacing:0px;fill:#000000;fill-opacity:1;stroke:none;stroke-width:0.0488919"
       x="31.384775"
       y="66.882507"
       id="text2151"
       transform="rotate(-13.210705)"><tspan
         sodipodi:role="line"
         id="tspan2149"
         x="31.384775"
         y="66.882507"
         style="font-style:normal;font-variant:normal;font-weight:500;font-stretch:normal;font-family:Iosevka;-inkscape-font-specification:'Iosevka Medium';fill:#000000;stroke-width:0.0488919">Covid -19</tspan></text>
  </g>
</svg>
