<?xml version="1.0" encoding="UTF-8" standalone="no"?>
<svg
   xmlns:dc="http://purl.org/dc/elements/1.1/"
   xmlns:cc="http://creativecommons.org/ns#"
   xmlns:rdf="http://www.w3.org/1999/02/22-rdf-syntax-ns#"
   xmlns:svg="http://www.w3.org/2000/svg"
   xmlns="http://www.w3.org/2000/svg"
   xmlns:sodipodi="http://sodipodi.sourceforge.net/DTD/sodipodi-0.dtd"
   xmlns:inkscape="http://www.inkscape.org/namespaces/inkscape"
   width="142.04134mm"
   height="142.04134mm"
   viewBox="0 0 142.04134 142.04134"
   version="1.1"
   id="svg8"
   inkscape:version="1.0.1 (3bc2e813f5, 2020-09-07)"
   sodipodi:docname="SayangDompet.svg"
   inkscape:export-filename="/home/deve/Projects/Udacoding/week4/final_week/sayangdompet/assets/images/icon.png"
   inkscape:export-xdpi="178.8212"
   inkscape:export-ydpi="178.8212">
  <defs
     id="defs2">
    <clipPath
       clipPathUnits="userSpaceOnUse"
       id="clipPath1319">
      <circle
         style="font-variation-settings:normal;opacity:0.951845;vector-effect:none;fill:none;fill-opacity:1;fill-rule:evenodd;stroke:#ff4f00;stroke-width:3.16387;stroke-linecap:round;stroke-linejoin:round;stroke-miterlimit:4;stroke-dasharray:none;stroke-dashoffset:0;stroke-opacity:1;paint-order:markers fill stroke;stop-color:#000000;stop-opacity:1"
         id="circle1321"
         cx="1220.6846"
         cy="295.90735"
         r="263.3222" />
    </clipPath>
  </defs>
  <sodipodi:namedview
     id="base"
     pagecolor="#ffffff"
     bordercolor="#666666"
     borderopacity="1.0"
     inkscape:pageopacity="0.0"
     inkscape:pageshadow="2"
     inkscape:zoom="0.75198774"
     inkscape:cx="182.98566"
     inkscape:cy="265.04737"
     inkscape:document-units="mm"
     inkscape:current-layer="g869"
     inkscape:document-rotation="0"
     showgrid="false"
     inkscape:window-width="1600"
     inkscape:window-height="862"
     inkscape:window-x="0"
     inkscape:window-y="38"
     inkscape:window-maximized="1" />
  <metadata
     id="metadata5">
    <rdf:RDF>
      <cc:Work
         rdf:about="">
        <dc:format>image/svg+xml</dc:format>
        <dc:type
           rdf:resource="http://purl.org/dc/dcmitype/StillImage" />
        <dc:title />
      </cc:Work>
    </rdf:RDF>
  </metadata>
  <g
     inkscape:label="Layer 1"
     inkscape:groupmode="layer"
     id="layer1"
     transform="translate(-44.919663,-29.41935)">
    <g
       id="g869"
       transform="matrix(0.26458333,0,0,0.26458333,-108.72932,-23.404321)">
      <path
         style="fill:#ffffff;fill-opacity:1"
         d="m 661.38815,370.92634 v 0 c 45.723,-45.789 119.853,-45.789 165.576,0 l 6.761,6.771 c 8.239,8.252 21.598,8.252 29.838,0 l 6.761,-6.771 c 45.722,-45.789 119.853,-45.789 165.57605,0 v 0 c 41.211,41.272 47.605,105.937 15.276,154.501 v 0 c -41.7591,60.162 -95.02405,111.426 -156.71005,150.823 l -34.478,22.02 c -6.919,4.419 -15.77,4.419 -22.689,0 l -34.478,-22.02 c -61.686,-39.396 -114.951,-90.661 -156.71,-150.823 v 0 c -32.32801,-48.564 -25.93401,-113.229 15.277,-154.501 z"
         id="path1350" />
      <path
         style="fill:#ffffff;fill-opacity:1"
         d="m 859.10715,698.78934 c -6.778,3.881 -15.177,3.715 -21.807,-0.519 l -34.478,-22.02 c -61.686,-39.396 -114.951,-90.661 -156.71,-150.823 v 0 c -32.32901,-48.564 -25.93501,-113.229 15.276,-154.501 v 0 c 20.193,-20.222 45.927,-31.507 72.307,-33.868 -12.716,6.087 -24.637,14.397 -35.171,24.945 v 0 c -44.898,44.963 -51.864,115.413 -16.643,168.322 v 0 c 45.494,65.544 103.524,121.394 170.728,164.314 z"
         id="path1352" />
      <g
         id="g1388"
         transform="matrix(0.43998713,0,0,0.43998713,641.44075,264.85589)"
         style="fill:#ffffff;fill-opacity:1">
        <path
           class="st0"
           d="m 716.5,729.6 h -488 c -24.4,0 -44.2,-19.8 -44.2,-44.2 V 338.2 c 0,-24.4 19.8,-44.2 44.2,-44.2 H 705 c 30.8,0 55.7,24.9 55.7,55.7 v 335.7 c 0,24.4 -19.8,44.2 -44.2,44.2 z"
           id="path1354"
           style="fill:#ffffff;fill-opacity:1" />
        <path
           class="st1"
           d="M 665.3,738.9 H 247.9 c -35.1,0 -63.6,-28.5 -63.6,-63.6 V 390.8 c 0,-35.1 28.5,-63.6 63.6,-63.6 h 417.4 c 35.1,0 63.6,28.5 63.6,63.6 v 284.4 c 0,35.2 -28.5,63.7 -63.6,63.7 z"
           id="path1356"
           style="fill:#ffffff;fill-opacity:1" />
        <g
           id="g1372"
           style="fill:#ffffff;fill-opacity:1">
          <path
             class="st2"
             d="m 685.2,379.7 -356.6,109 c -10.7,3.3 -22,-2.7 -25.2,-13.4 L 246.4,289 c -3.3,-10.7 2.7,-22 13.4,-25.2 l 356.6,-109 c 10.7,-3.3 22,2.7 25.2,13.4 l 57,186.3 c 3.3,10.7 -2.7,22 -13.4,25.2 z"
             id="path1358"
             style="fill:#ffffff;fill-opacity:1" />
          <rect
             x="251.3"
             y="247.2"
             transform="matrix(0.9563,-0.2924,0.2924,0.9563,-60.1958,145.891)"
             class="st3"
             width="413.29999"
             height="54.200001"
             id="rect1360"
             style="fill:#ffffff;fill-opacity:1" />
          <rect
             x="408.60001"
             y="321.10001"
             transform="matrix(0.9563,-0.2924,0.2924,0.9563,-74.3933,152.6772)"
             class="st4"
             width="129.89999"
             height="8.1999998"
             id="rect1362"
             style="fill:#ffffff;fill-opacity:1" />
          <rect
             x="415.79999"
             y="344.60001"
             transform="matrix(0.9563,-0.2924,0.2924,0.9563,-80.9475,155.8111)"
             class="st4"
             width="129.89999"
             height="8.1999998"
             id="rect1364"
             style="fill:#ffffff;fill-opacity:1" />
          <rect
             x="423"
             y="368.10001"
             transform="matrix(0.9563,-0.2924,0.2924,0.9563,-87.5018,158.9449)"
             class="st4"
             width="129.89999"
             height="8.1999998"
             id="rect1366"
             style="fill:#ffffff;fill-opacity:1" />
          <circle
             transform="matrix(0.06021006,-0.9982,0.9982,0.06021006,287.2554,914.4629)"
             class="st5"
             cx="629.29999"
             cy="304.70001"
             id="circle1368"
             r="24.200001"
             style="fill:#ffffff;fill-opacity:1" />
          <circle
             transform="matrix(0.7484,-0.6632,0.6632,0.7484,-58.868,474.5331)"
             class="st6"
             cx="596.09998"
             cy="314.89999"
             id="circle1370"
             r="24.200001"
             style="fill:#ffffff;fill-opacity:1" />
        </g>
        <path
           class="st1"
           d="M 689.2,399.6 H 234 v -49.1 h 409.9 c 25,0 45.3,20.3 45.3,45.3 z"
           id="path1374"
           style="fill:#ffffff;fill-opacity:1" />
        <path
           class="st7"
           d="M 697.1,806.1 H 247.9 c -35.1,0 -63.6,-28.5 -63.6,-63.6 V 434.1 c 0,-35.1 28.5,-63.6 63.6,-63.6 h 449.2 c 35.1,0 63.6,28.5 63.6,63.6 v 308.4 c 0,35.1 -28.5,63.6 -63.6,63.6 z"
           id="path1376"
           style="fill:#ffffff;fill-opacity:1" />
        <path
           class="st8"
           d="M 763.1,643.1 H 646.2 c -31.1,0 -56.2,-25.2 -56.2,-56.2 v 0 c 0,-31.1 25.2,-56.2 56.2,-56.2 H 763 c 7,0 12.7,5.7 12.7,12.7 v 87.1 c 0,6.9 -5.6,12.6 -12.6,12.6 z"
           id="path1378"
           style="fill:#ffffff;fill-opacity:1" />
        <circle
           class="st9"
           cx="648.20001"
           cy="586.90002"
           r="34.599998"
           id="circle1380"
           style="fill:#ffffff;fill-opacity:1" />
        <rect
           x="184.3"
           y="438.10001"
           class="st8"
           width="576.40002"
           height="30"
           id="rect1382"
           style="fill:#ffffff;fill-opacity:1" />
        <rect
           x="184.3"
           y="723.20001"
           class="st8"
           width="576.40002"
           height="30"
           id="rect1384"
           style="fill:#ffffff;fill-opacity:1" />
        <path
           class="st7"
           d="m 184.3,333.5 c 0,0 -1,37 43.9,37 19.4,0 35.6,0 35.6,0 l -79.5,63.7 z"
           id="path1386"
           style="fill:#ffffff;fill-opacity:1" />
      </g>
      <path
         style="fill:#ffffff;fill-opacity:1"
         d="m 1104.1502,513.15534 v 79.96 h -38.252 c -16.9571,0 -33.682,3.954 -48.849,11.548 -11.087,5.551 -23.31205,8.442 -35.70705,8.442 h -35.505 c -0.738,0 5.18,-0.054 4.452,-0.136 h -19.315 c -8.249,0 -14.937,-6.697 -14.937,-14.958 v 0 c 0,-8.261 6.688,-14.958 14.937,-14.958 l -19.961,-0.068 c -8.249,0 -14.937,-6.697 -14.937,-14.958 v 0 c 0,-8.261 6.688,-14.958 14.937,-14.958 l -29.941,-0.068 c -8.249,0 -14.937,-6.697 -14.937,-14.959 v 0 c 0,-8.261 6.688,-14.958 14.937,-14.958 h 19.961 c -8.249,0 -14.937,-6.697 -14.937,-14.959 0,-8.262 6.688,-14.958 14.937,-14.958 h 45.928 38.295 5.938 c 8.392,0 13.03705,-9.742 7.762,-16.278 l -15.814,-19.594 c -7.343,-9.099 -6.647,-22.28 1.614,-30.552 l 0.171,-0.172 c 1.914,-1.917 4.904,-2.007 6.882,-0.254 10.40205,9.221 41.48405,36.762 60.35005,53.479 9.7439,8.633 16.086,20.46 17.8969,33.362 v 0 h 34.0941 z m -285.93005,9.927 h -19.961 c 8.249,0 14.937,-6.697 14.937,-14.959 0,-8.262 -6.688,-14.958 -14.937,-14.958 h -45.928 -38.294 -5.938 c -8.392,0 -13.037,-9.742 -7.762,-16.278 l 15.813,-19.594 c 7.343,-9.099 6.647,-22.28 -1.613,-30.552 l -0.171,-0.172 c -1.914,-1.917 -4.904,-2.007 -6.881,-0.254 -10.402,9.221 -41.484,36.762 -60.351,53.479 -9.74301,8.633 -16.08601,20.46 -17.89601,33.362 v 0 h -36.093 v 79.96 h 40.248 c 16.95701,0 33.68201,3.954 48.84901,11.548 11.087,5.551 23.312,8.442 35.707,8.442 h 35.505 c 0.738,0 -5.181,-0.054 -4.452,-0.136 h 19.315 c 8.249,0 14.937,-6.697 14.937,-14.958 v 0 c 0,-8.261 -6.688,-14.958 -14.937,-14.958 l 19.961,-0.068 c 8.249,0 14.937,-6.697 14.937,-14.958 v 0 c 0,-8.261 -6.688,-14.958 -14.937,-14.958 l 29.941,-0.068 c 8.249,0 14.937,-6.697 14.937,-14.959 v 0 c 10e-4,-8.264 -6.687,-14.961 -14.936,-14.961 z"
         id="path1390" />
      <path
         style="fill:#ffffff;fill-opacity:1"
         d="m 757.49015,582.95334 h 31.401 c -0.203,0.008 -0.403,0.031 -0.608,0.031 h -35.948 v 0.068 h 15.986 c 8.227,0 14.898,6.663 14.933,14.894 h -25.765 -39.423 c -4.134,0 -7.485,-3.356 -7.485,-7.496 0,-4.14 3.351,-7.496 7.485,-7.496 h 39.424 z m 60.734,-59.871 h -19.961 c 0.565,0 1.12,-0.038 1.668,-0.099 h -42.441 -39.423 c -4.134,0 -7.485,3.356 -7.485,7.496 0,4.14 3.351,7.496 7.485,7.496 h 39.423 43.749 31.918 c -0.035,-8.23 -6.706,-14.893 -14.933,-14.893 z m -60.734,29.886 h -39.423 c -4.134,0 -7.485,3.356 -7.485,7.496 0,4.14 3.351,7.496 7.485,7.496 h 39.423 43.749 1.977 c -0.035,-8.231 -6.706,-14.894 -14.933,-14.894 h -35.948 v -0.068 h 65.889 c 0.205,0 0.405,-0.023 0.608,-0.031 h -17.593 -43.749 z m 221.739,29.985 h -34.432 -34.395 c 0.203,0.008 0.403,0.031 0.608,0.031 h 35.947 v 0.068 h -15.986 c -8.228,0 -14.899,6.663 -14.934,14.894 h 28.76 34.432 c 4.134,0 7.485,-3.356 7.485,-7.496 0,-4.14 -3.351,-7.497 -7.485,-7.497 z m 0,-29.985 h -34.432 -48.739 -15.597 c 0.203,0.008 0.403,0.031 0.608,0.031 h 65.888 v 0.068 h -35.947 c -8.228,0 -14.899,6.663 -14.934,14.894 h 48.72 34.432 c 4.134,0 7.485,-3.356 7.485,-7.496 10e-4,-4.14 -3.35,-7.497 -7.484,-7.497 z m 0,-29.985 h -34.432 -45.435 c 0.548,0.061 1.104,0.099 1.668,0.099 h -19.961 c -8.228,0 -14.899,6.663 -14.934,14.894 h 29.922 48.739 34.432 c 4.134,0 7.485,-3.356 7.485,-7.496 0,-4.14 -3.35,-7.497 -7.484,-7.497 z m -378.59901,-34.316 c -4.134,0 -7.485,3.356 -7.485,7.496 v 116.942 c 0,4.14 3.351,7.496 7.485,7.496 4.134,0 7.485,-3.356 7.485,-7.496 v -116.942 c 10e-4,-4.14 -3.35,-7.496 -7.485,-7.496 z m 497.03006,0 c -4.134,0 -7.485,3.356 -7.485,7.496 v 116.942 c 0,4.14 3.351,7.496 7.485,7.496 4.134,0 7.485,-3.356 7.485,-7.496 v -116.942 c 0,-4.14 -3.351,-7.496 -7.485,-7.496 z"
         id="path1392" />
      <g
         id="g956"
         transform="translate(953.35839,90.918583)" />
      <g
         id="g958"
         transform="translate(953.35839,90.918583)" />
      <g
         id="g960"
         transform="translate(953.35839,90.918583)" />
      <g
         id="g962"
         transform="translate(953.35839,90.918583)" />
      <g
         id="g964"
         transform="translate(953.35839,90.918583)" />
      <g
         id="g966"
         transform="translate(953.35839,90.918583)" />
      <g
         id="g968"
         transform="translate(953.35839,90.918583)" />
      <g
         id="g970"
         transform="translate(953.35839,90.918583)" />
      <g
         id="g972"
         transform="translate(953.35839,90.918583)" />
      <g
         id="g974"
         transform="translate(953.35839,90.918583)" />
      <g
         id="g976"
         transform="translate(953.35839,90.918583)" />
      <g
         id="g978"
         transform="translate(953.35839,90.918583)" />
      <g
         id="g980"
         transform="translate(953.35839,90.918583)" />
      <g
         id="g982"
         transform="translate(953.35839,90.918583)" />
      <g
         id="g984"
         transform="translate(953.35839,90.918583)" />
      <g
         id="g1285"
         transform="translate(-371.53947,172.16576)"
         clip-path="url(#clipPath1319)">
        <g
           id="g1311"
           transform="translate(11.326217)">
          <path
             style="fill:#ff4040"
             d="m 1021.6014,198.76058 v 0 c 45.723,-45.789 119.853,-45.789 165.576,0 l 6.761,6.771 c 8.239,8.252 21.598,8.252 29.838,0 l 6.761,-6.771 c 45.722,-45.789 119.853,-45.789 165.576,0 v 0 c 41.211,41.272 47.605,105.937 15.276,154.501 v 0 c -41.759,60.162 -95.024,111.426 -156.71,150.823 l -34.478,22.02 c -6.919,4.419 -15.77,4.419 -22.689,0 l -34.478,-22.02 c -61.686,-39.396 -114.951,-90.661 -156.71,-150.823 v 0 c -32.32801,-48.564 -25.93401,-113.229 15.277,-154.501 z"
             id="path948" />
          <path
             style="fill:#ed3c3c"
             d="m 1219.3204,526.62358 c -6.778,3.881 -15.177,3.715 -21.807,-0.519 l -34.478,-22.02 c -61.686,-39.396 -114.951,-90.661 -156.71,-150.823 v 0 c -32.32901,-48.564 -25.93501,-113.229 15.276,-154.501 v 0 c 20.193,-20.222 45.927,-31.507 72.307,-33.868 -12.716,6.087 -24.637,14.397 -35.171,24.945 v 0 c -44.898,44.963 -51.864,115.413 -16.643,168.322 v 0 c 45.494,65.544 103.524,121.394 170.728,164.314 z"
             id="path950" />
          <g
             id="g914"
             transform="matrix(0.43998713,0,0,0.43998713,1001.654,92.690133)">
            <path
               class="st0"
               d="m 716.5,729.6 h -488 c -24.4,0 -44.2,-19.8 -44.2,-44.2 V 338.2 c 0,-24.4 19.8,-44.2 44.2,-44.2 H 705 c 30.8,0 55.7,24.9 55.7,55.7 v 335.7 c 0,24.4 -19.8,44.2 -44.2,44.2 z"
               id="path835" />
            <path
               class="st1"
               d="M 665.3,738.9 H 247.9 c -35.1,0 -63.6,-28.5 -63.6,-63.6 V 390.8 c 0,-35.1 28.5,-63.6 63.6,-63.6 h 417.4 c 35.1,0 63.6,28.5 63.6,63.6 v 284.4 c 0,35.2 -28.5,63.7 -63.6,63.7 z"
               id="path837" />
            <g
               id="g853">
              <path
                 class="st2"
                 d="m 685.2,379.7 -356.6,109 c -10.7,3.3 -22,-2.7 -25.2,-13.4 L 246.4,289 c -3.3,-10.7 2.7,-22 13.4,-25.2 l 356.6,-109 c 10.7,-3.3 22,2.7 25.2,13.4 l 57,186.3 c 3.3,10.7 -2.7,22 -13.4,25.2 z"
                 id="path839" />
              <rect
                 x="251.3"
                 y="247.2"
                 transform="matrix(0.9563,-0.2924,0.2924,0.9563,-60.1958,145.891)"
                 class="st3"
                 width="413.29999"
                 height="54.200001"
                 id="rect841" />
              <rect
                 x="408.60001"
                 y="321.10001"
                 transform="matrix(0.9563,-0.2924,0.2924,0.9563,-74.3933,152.6772)"
                 class="st4"
                 width="129.89999"
                 height="8.1999998"
                 id="rect843" />
              <rect
                 x="415.79999"
                 y="344.60001"
                 transform="matrix(0.9563,-0.2924,0.2924,0.9563,-80.9475,155.8111)"
                 class="st4"
                 width="129.89999"
                 height="8.1999998"
                 id="rect845" />
              <rect
                 x="423"
                 y="368.10001"
                 transform="matrix(0.9563,-0.2924,0.2924,0.9563,-87.5018,158.9449)"
                 class="st4"
                 width="129.89999"
                 height="8.1999998"
                 id="rect847" />
              <circle
                 transform="matrix(0.06021006,-0.9982,0.9982,0.06021006,287.2554,914.4629)"
                 class="st5"
                 cx="629.29999"
                 cy="304.70001"
                 id="ellipse849"
                 r="24.200001" />
              <circle
                 transform="matrix(0.7484,-0.6632,0.6632,0.7484,-58.868,474.5331)"
                 class="st6"
                 cx="596.09998"
                 cy="314.89999"
                 id="ellipse851"
                 r="24.200001" />
            </g>
            <path
               class="st1"
               d="M 689.2,399.6 H 234 v -49.1 h 409.9 c 25,0 45.3,20.3 45.3,45.3 z"
               id="path855" />
            <path
               class="st7"
               d="M 697.1,806.1 H 247.9 c -35.1,0 -63.6,-28.5 -63.6,-63.6 V 434.1 c 0,-35.1 28.5,-63.6 63.6,-63.6 h 449.2 c 35.1,0 63.6,28.5 63.6,63.6 v 308.4 c 0,35.1 -28.5,63.6 -63.6,63.6 z"
               id="path857" />
            <path
               class="st8"
               d="M 763.1,643.1 H 646.2 c -31.1,0 -56.2,-25.2 -56.2,-56.2 v 0 c 0,-31.1 25.2,-56.2 56.2,-56.2 H 763 c 7,0 12.7,5.7 12.7,12.7 v 87.1 c 0,6.9 -5.6,12.6 -12.6,12.6 z"
               id="path859" />
            <circle
               class="st9"
               cx="648.20001"
               cy="586.90002"
               r="34.599998"
               id="circle861" />
            <rect
               x="184.3"
               y="438.10001"
               class="st8"
               width="576.40002"
               height="30"
               id="rect863" />
            <rect
               x="184.3"
               y="723.20001"
               class="st8"
               width="576.40002"
               height="30"
               id="rect865" />
            <path
               class="st7"
               d="m 184.3,333.5 c 0,0 -1,37 43.9,37 19.4,0 35.6,0 35.6,0 l -79.5,63.7 z"
               id="path867" />
          </g>
          <path
             style="fill:#f8c087"
             d="m 1464.3634,340.98958 v 79.96 h -38.252 c -16.957,0 -33.682,3.954 -48.849,11.548 -11.087,5.551 -23.312,8.442 -35.707,8.442 h -35.505 c -0.738,0 5.18,-0.054 4.452,-0.136 h -19.315 c -8.249,0 -14.937,-6.697 -14.937,-14.958 v 0 c 0,-8.261 6.688,-14.958 14.937,-14.958 l -19.961,-0.068 c -8.249,0 -14.937,-6.697 -14.937,-14.958 v 0 c 0,-8.261 6.688,-14.958 14.937,-14.958 l -29.941,-0.068 c -8.249,0 -14.937,-6.697 -14.937,-14.959 v 0 c 0,-8.261 6.688,-14.958 14.937,-14.958 h 19.961 c -8.249,0 -14.937,-6.697 -14.937,-14.959 0,-8.262 6.688,-14.958 14.937,-14.958 h 45.928 38.295 5.938 c 8.392,0 13.037,-9.742 7.762,-16.278 l -15.814,-19.594 c -7.343,-9.099 -6.647,-22.28 1.614,-30.552 l 0.171,-0.172 c 1.914,-1.917 4.904,-2.007 6.882,-0.254 10.402,9.221 41.484,36.762 60.35,53.479 9.744,8.633 16.086,20.46 17.897,33.362 v 0 h 34.094 z m -285.93,9.927 h -19.961 c 8.249,0 14.937,-6.697 14.937,-14.959 0,-8.262 -6.688,-14.958 -14.937,-14.958 h -45.928 -38.294 -5.938 c -8.392,0 -13.037,-9.742 -7.762,-16.278 l 15.813,-19.594 c 7.343,-9.099 6.647,-22.28 -1.613,-30.552 l -0.171,-0.172 c -1.914,-1.917 -4.904,-2.007 -6.881,-0.254 -10.402,9.221 -41.484,36.762 -60.351,53.479 -9.74301,8.633 -16.08601,20.46 -17.89601,33.362 v 0 h -36.093 v 79.96 h 40.248 c 16.95701,0 33.68201,3.954 48.84901,11.548 11.087,5.551 23.312,8.442 35.707,8.442 h 35.505 c 0.738,0 -5.181,-0.054 -4.452,-0.136 h 19.315 c 8.249,0 14.937,-6.697 14.937,-14.958 v 0 c 0,-8.261 -6.688,-14.958 -14.937,-14.958 l 19.961,-0.068 c 8.249,0 14.937,-6.697 14.937,-14.958 v 0 c 0,-8.261 -6.688,-14.958 -14.937,-14.958 l 29.941,-0.068 c 8.249,0 14.937,-6.697 14.937,-14.959 v 0 c 10e-4,-8.264 -6.687,-14.961 -14.936,-14.961 z"
             id="path952" />
          <path
             style="fill:#f8af78"
             d="m 1117.7034,410.78758 h 31.401 c -0.203,0.008 -0.403,0.031 -0.608,0.031 h -35.948 v 0.068 h 15.986 c 8.227,0 14.898,6.663 14.933,14.894 h -25.765 -39.423 c -4.134,0 -7.485,-3.356 -7.485,-7.496 0,-4.14 3.351,-7.496 7.485,-7.496 h 39.424 z m 60.734,-59.871 h -19.961 c 0.565,0 1.12,-0.038 1.668,-0.099 h -42.441 -39.423 c -4.134,0 -7.485,3.356 -7.485,7.496 0,4.14 3.351,7.496 7.485,7.496 h 39.423 43.749 31.918 c -0.035,-8.23 -6.706,-14.893 -14.933,-14.893 z m -60.734,29.886 h -39.423 c -4.134,0 -7.485,3.356 -7.485,7.496 0,4.14 3.351,7.496 7.485,7.496 h 39.423 43.749 1.977 c -0.035,-8.231 -6.706,-14.894 -14.933,-14.894 h -35.948 v -0.068 h 65.889 c 0.205,0 0.405,-0.023 0.608,-0.031 h -17.593 -43.749 z m 221.739,29.985 h -34.432 -34.395 c 0.203,0.008 0.403,0.031 0.608,0.031 h 35.947 v 0.068 h -15.986 c -8.228,0 -14.899,6.663 -14.934,14.894 h 28.76 34.432 c 4.134,0 7.485,-3.356 7.485,-7.496 0,-4.14 -3.351,-7.497 -7.485,-7.497 z m 0,-29.985 h -34.432 -48.739 -15.597 c 0.203,0.008 0.403,0.031 0.608,0.031 h 65.888 v 0.068 h -35.947 c -8.228,0 -14.899,6.663 -14.934,14.894 h 48.72 34.432 c 4.134,0 7.485,-3.356 7.485,-7.496 10e-4,-4.14 -3.35,-7.497 -7.484,-7.497 z m 0,-29.985 h -34.432 -45.435 c 0.548,0.061 1.104,0.099 1.668,0.099 h -19.961 c -8.228,0 -14.899,6.663 -14.934,14.894 h 29.922 48.739 34.432 c 4.134,0 7.485,-3.356 7.485,-7.496 0,-4.14 -3.35,-7.497 -7.484,-7.497 z m -378.59901,-34.316 c -4.134,0 -7.485,3.356 -7.485,7.496 v 116.942 c 0,4.14 3.351,7.496 7.485,7.496 4.134,0 7.485,-3.356 7.485,-7.496 v -116.942 c 10e-4,-4.14 -3.35,-7.496 -7.485,-7.496 z m 497.03001,0 c -4.134,0 -7.485,3.356 -7.485,7.496 v 116.942 c 0,4.14 3.351,7.496 7.485,7.496 4.134,0 7.485,-3.356 7.485,-7.496 v -116.942 c 0,-4.14 -3.351,-7.496 -7.485,-7.496 z"
             id="path954" />
        </g>
      </g>
    </g>
  </g>
  <style
     type="text/css"
     id="style833">
	.st0{fill:#754C24;}
	.st1{fill:#F2F2F2;}
	.st2{fill:#4B9CB2;}
	.st3{fill:#1B4A59;}
	.st4{fill:#1F6175;}
	.st5{fill:#FBB03B;}
	.st6{fill:#C1272D;}
	.st7{fill:#A67C52;}
	.st8{fill:#C69C6D;}
	.st9{fill:#E5C19E;}
</style>
</svg>
